<svg width="2001" height="2000" viewBox="0 0 2001 2000" fill="none" xmlns="http://www.w3.org/2000/svg">
<g clip-path="url(#clip0_8_2)">
<path d="M1025.29 488.75L1029.04 490L1047.8 515L1065.3 537.5L1080.31 557.5L1092.81 573.75L1109.06 595L1129.07 621.25L1147.83 646.25L1165.33 668.75L1176.58 683.75L1216.59 736.25L1217.85 743.75L1207.84 775L1199.09 812.5L1194.09 850L1192.84 871.25V892.5L1196.59 941.25L1187.84 950L1180.33 960L1204.09 948.75L1230.35 938.75L1256.61 931.25L1280.36 926.25L1301.62 923.75H1345.38L1372.89 927.5L1400.4 935L1420.4 942.5L1440.41 952.5L1455.41 961.25L1459.16 973.75V1003.75L1455.41 1018.75L1456.66 1025L1464.17 1033.75L1472.92 1052.5L1479.17 1075V1081.25L1470.42 1073.75L1455.41 1062.5L1437.91 1052.5L1417.9 1045L1397.9 1040L1377.89 1037.5L1354.13 1036.25L1349.13 1057.5L1341.63 1080L1330.38 1105L1315.37 1130L1300.37 1151.25H1297.87L1294.12 1158.75H1291.62L1289.12 1163.75L1274.11 1180L1264.11 1190L1254.11 1198.75L1240.35 1210L1217.85 1227.5L1195.34 1243.75L1140.32 1280L1114.07 1297.5L1086.56 1316.25L1062.8 1333.75L1049.05 1345L1037.79 1355H1035.29V1316.25L1039.04 1285L1047.8 1242.5L1059.05 1200L1077.81 1143.75L1060.3 1155L1042.8 1162.5L1025.29 1167.5L1005.29 1168.75L1007.79 1163.75L1017.79 1148.75L1035.29 1123.75L1042.8 1112.5L1029.04 1123.75L1007.79 1138.75L985.279 1151.25L964.023 1161.25L940.267 1168.75L914.009 1172.5H901.506L889.002 1171.25L886.501 1170L889.002 1165L929.013 1125L937.766 1115L954.021 1098.75L936.516 1108.75L906.507 1125L877.749 1137.5L853.992 1146.25L825.234 1153.75L803.978 1157.5L790.224 1158.75H765.217L738.96 1155L718.954 1148.75L725.206 1142.5L788.974 1097.5L813.981 1080L835.237 1065L843.989 1058.75L802.728 1071.25L765.217 1080L731.457 1085L717.703 1086.25H670.19L642.682 1082.5L617.675 1076.25L598.92 1068.75L577.664 1057.5L576.413 1053.75L758.965 976.25L780.221 967.5L741.46 970H688.945L660.187 967.5L630.179 962.5L601.421 955L570.162 942.5L546.405 928.75L528.9 915L520.147 906.25L521.398 903.75L717.703 867.5L718.954 866.25L680.193 858.75L645.183 848.75L613.924 836.25L590.167 823.75L575.163 813.75L562.66 803.75L550.156 792.5L538.903 780L531.401 768.75V767.5H745.211L720.204 758.75L695.197 747.5L668.94 733.75L650.184 721.25L637.681 711.25L625.177 700L613.924 688.75L600.17 670L588.917 648.75L593.918 647.5L895.254 707.5L910.258 710L899.005 697.5L885.251 678.75L873.998 660L863.995 637.5L857.743 611.25V600L863.995 602.5L900.255 623.75L935.265 645L975.277 668.75L990.281 677.5L975.277 658.75L959.022 633.75L945.268 607.5L937.766 587.5L932.764 566.25L931.514 556.25V532.5L932.764 526.25L942.767 533.75L952.77 543.75L962.773 552.5L977.777 566.25L987.78 575L1002.78 588.75L1012.79 597.5L1027.79 611.25L1037.79 620L1052.8 633.75L1051.55 628.75L1039.04 605L1029.04 578.75L1022.79 556.25L1020.29 540V511.25L1025.29 488.75Z" fill="#04695C"/>
<path d="M1025.29 488.75L1029.04 490L1047.8 515L1065.3 537.5L1080.31 557.5L1092.81 573.75L1109.06 595L1129.07 621.25L1147.83 646.25L1165.33 668.75L1176.58 683.75L1216.59 736.25L1217.85 743.75L1207.84 775L1199.09 812.5L1194.09 850L1192.84 871.25V892.5L1196.59 941.25L1187.84 950L1179.08 962.5H1176.58V965L1181.59 967.5L1205.34 982.5L1215.34 988.75L1209.09 996.25L1194.09 1007.5L1189.09 1010L1187.84 1013.75L1181.59 1011.25L1164.08 1001.25L1141.57 985L1125.32 971.25L1119.07 966.25L1091.56 938.75L1082.81 928.75L1070.3 913.75L1065.3 915V917.5L1041.55 932.5L1027.79 942.5H1025.29L1024.04 945L1010.29 926.25L1000.28 908.75L990.281 892.5L975.277 863.75L964.023 840L951.52 807.5L947.769 795L926.513 787.5L900.255 776.25L867.746 760L842.739 745L816.482 727.5L793.975 711.25L776.47 697.5L760.216 683.75L758.965 681.25L775.22 683.75L907.757 710L909.008 708.75L894.003 691.25L878.999 668.75L868.996 650L861.494 628.75L857.743 611.25V600L863.995 602.5L900.255 623.75L935.265 645L975.277 668.75L990.281 677.5L975.277 658.75L959.022 633.75L945.268 607.5L937.766 587.5L932.764 566.25L931.514 556.25V532.5L932.764 526.25L942.767 533.75L952.77 543.75L962.773 552.5L977.777 566.25L987.78 575L1002.78 588.75L1012.79 597.5L1027.79 611.25L1037.79 620L1052.8 633.75L1051.55 628.75L1039.04 605L1029.04 578.75L1022.79 556.25L1020.29 540V511.25L1025.29 488.75Z" fill="#018A7F"/>
<path d="M1301.62 923.75H1345.38L1372.89 927.5L1400.4 935L1420.4 942.5L1440.41 952.5L1455.41 961.25L1459.16 973.75V1003.75L1455.41 1018.75L1456.66 1025L1464.17 1033.75L1472.92 1052.5L1479.17 1075V1081.25L1470.42 1073.75L1455.41 1062.5L1437.91 1052.5L1417.9 1045L1397.9 1040L1377.89 1037.5L1354.13 1036.25L1349.13 1057.5L1341.63 1080L1330.38 1105L1315.37 1130L1300.37 1151.25H1297.87L1294.12 1158.75H1291.62L1289.12 1163.75L1274.11 1180L1264.11 1190L1254.11 1198.75L1240.35 1210L1217.85 1227.5L1195.34 1243.75L1140.32 1280L1114.07 1297.5L1086.56 1316.25L1062.8 1333.75L1049.05 1345L1037.79 1355H1035.29V1316.25L1039.04 1285L1047.8 1242.5L1059.05 1200L1074.05 1155L1080.31 1140L1094.06 1130L1104.06 1120L1114.07 1111.25L1126.57 1097.5L1142.82 1076.25L1150.33 1065L1144.07 1060L1126.57 1048.75L1102.81 1031.25L1086.56 1016.25L1071.55 1002.5L1069.05 998.75L1087.81 985L1101.56 976.25L1115.32 966.25H1120.32L1137.82 981.25L1160.33 997.5L1185.34 1012.5H1187.84L1194.09 1006.25L1210.34 993.75L1214.09 988.75L1189.09 973.75L1176.58 965V962.5L1195.34 952.5L1226.6 940L1251.6 932.5L1280.36 926.25L1301.62 923.75Z" fill="#023781"/>
<path d="M994.032 903.75L999.033 905L1010.29 923.75L1024.04 943.75L1045.3 928.75L1062.8 917.5H1065.3V915L1070.3 912.5L1081.56 925L1090.31 935L1101.56 947.5L1119.07 965L1101.56 977.5L1079.06 992.5L1070.3 998.75L1077.81 1007.5L1094.06 1022.5L1109.06 1035L1131.57 1051.25L1151.58 1063.75L1145.32 1075L1129.07 1095L1117.82 1108.75L1106.56 1120L1096.56 1128.75L1082.81 1140H1080.31V1142.5L1057.8 1156.25L1039.04 1163.75L1025.29 1167.5L1005.29 1168.75L1007.79 1163.75L1017.79 1148.75L1035.29 1123.75L1042.8 1112.5L1029.04 1123.75L1007.79 1138.75L985.279 1151.25L964.023 1161.25L940.267 1168.75L914.009 1172.5H901.506L889.002 1171.25L886.501 1170L889.002 1165L929.013 1125L937.766 1115L954.021 1098.75L936.516 1108.75L906.507 1125L877.749 1137.5L853.992 1146.25L825.234 1153.75L803.978 1157.5L790.224 1158.75H765.217L738.96 1155L718.954 1148.75L725.206 1142.5L788.974 1097.5L813.981 1080L835.237 1065L852.742 1053.75L868.996 1047.5H871.497L865.245 1035L845.24 1000L832.736 1002.5L825.234 1005L818.982 1003.75L802.728 975L797.726 965L802.728 962.5L853.992 952.5L892.753 942.5L924.012 932.5L955.271 921.25L989.03 906.25L994.032 903.75Z" fill="#018A7F"/>
<path d="M717.703 867.5H737.709L768.968 870L837.738 871.25V872.5H826.484L827.735 876.25V898.75L828.985 905V908.75L876.499 902.5L920.261 893.75L957.772 883.75L980.278 876.25H982.779L996.533 901.25L997.783 903.75L961.523 920L927.763 932.5L896.504 942.5L858.994 952.5L816.482 961.25L798.977 965L806.479 978.75L820.233 1003.75L828.985 1002.5L841.489 998.75L846.49 1000L858.994 1022.5L868.996 1040L871.497 1043.75V1047.5L850.241 1056.25L840.238 1060L802.728 1071.25L765.217 1080L731.457 1085L717.703 1086.25H670.19L642.682 1082.5L617.675 1076.25L598.92 1068.75L577.664 1057.5L576.413 1053.75L758.965 976.25L780.221 967.5L741.46 970H688.945L660.187 967.5L630.179 962.5L601.421 955L570.162 942.5L546.405 928.75L528.9 915L520.147 906.25L521.398 903.75L717.703 867.5Z" fill="#1B8169"/>
<path d="M1025.29 488.75L1029.04 490L1047.8 515L1065.3 537.5L1080.31 557.5L1105.31 590L1112.82 632.5L1121.57 667.5L1135.32 707.5L1147.83 735L1156.58 750L1154.08 758.75L1147.83 773.75L1141.57 792.5L1137.82 793.75L1114.07 781.25L1084.06 762.5L1080.31 760V757.5L1075.3 755L1057.8 742.5L1045.3 731.25L1031.54 720L991.531 680L981.528 666.25L970.275 651.25L955.271 627.5L942.767 601.25L936.516 582.5L932.765 566.25L931.514 556.25V532.5L932.765 526.25L942.767 533.75L952.77 543.75L962.773 552.5L977.777 566.25L987.78 575L1002.78 588.75L1012.79 597.5L1027.79 611.25L1037.79 620L1052.8 633.75L1051.55 628.75L1039.04 605L1029.04 578.75L1022.79 556.25L1020.29 540V511.25L1025.29 488.75Z" fill="#04695C"/>
<path d="M758.965 681.25L775.22 683.75L907.757 710L999.033 728.75L1005.29 741.25L1016.54 767.5L1029.04 791.25L1036.54 806.25L1051.55 831.25L1069.05 856.25L1085.31 877.5L1099.06 893.75L1110.31 906.25L1135.32 931.25L1141.57 935L1155.33 947.5L1164.08 953.75L1161.58 960L1147.83 970L1136.57 978.75L1130.32 976.25L1119.07 966.25L1091.56 938.75L1082.81 928.75L1070.3 913.75L1065.3 915V917.5L1041.55 932.5L1027.79 942.5H1025.29L1024.04 945L1010.29 926.25L1000.28 908.75L990.281 892.5L975.277 863.75L964.023 840L951.52 807.5L947.769 795L926.513 787.5L900.255 776.25L867.746 760L842.739 745L816.482 727.5L793.975 711.25L776.47 697.5L760.216 683.75L758.965 681.25Z" fill="#45E9DE"/>
<path d="M1042.8 1261.25L1044.05 1265L1039.04 1293.75L1036.54 1316.25L1035.29 1355L1049.05 1343.75L1064.05 1331.25L1086.56 1315L1106.56 1301.25L1132.82 1283.75L1137.82 1286.25L1150.33 1315L1157.83 1338.75L1162.83 1365V1393.75L1157.83 1415L1152.83 1423.75L1149.08 1420L1145.32 1412.5L1140.32 1441.25L1134.07 1460L1126.57 1473.75L1117.82 1485L1115.32 1482.5L1101.56 1430L1094.06 1455L1082.81 1478.75L1074.05 1491.25L1062.8 1503.75L1052.8 1512.5H1051.55L1050.3 1495V1437.5H1047.8L1045.3 1443.75L1035.29 1458.75L1021.54 1473.75L1012.79 1482.5L995.282 1493.75L989.03 1496.25L985.279 1495L1005.29 1408.75L980.278 1427.5L960.272 1437.5L941.517 1442.5H939.016L941.517 1436.25L957.772 1407.5L977.777 1373.75L997.783 1338.75L1017.79 1305L1036.54 1272.5L1042.8 1261.25Z" fill="#E483B9"/>
<path d="M1301.62 923.75H1345.38L1372.89 927.5L1400.4 935L1420.4 942.5L1440.41 952.5L1455.41 961.25L1459.16 973.75V1003.75L1455.41 1018.75L1456.66 1025L1464.17 1033.75L1472.92 1052.5L1479.17 1075V1081.25L1470.42 1073.75L1455.41 1062.5L1437.91 1052.5L1417.9 1045L1397.9 1040L1377.89 1037.5L1354.13 1036.25L1352.88 1038.75L1341.63 1036.25L1309.12 1028.75L1271.61 1016.25L1242.85 1003.75L1217.85 991.25L1189.09 973.75L1176.58 965V962.5L1195.34 952.5L1226.6 940L1251.6 932.5L1280.36 926.25L1301.62 923.75Z" fill="#512F9E"/>
<path d="M1116.57 965L1121.57 967.5L1137.82 981.25L1160.33 997.5L1185.34 1012.5H1187.84L1194.09 1006.25L1210.34 993.75L1215.34 988.75L1235.35 998.75L1259.11 1010L1289.12 1021.25L1319.12 1030L1350.38 1036.25L1352.88 1037.5L1351.63 1048.75L1344.13 1073.75L1331.63 1102.5L1329.13 1106.25H1300.37L1276.61 1105L1246.6 1100L1220.35 1093.75L1187.84 1082.5L1151.58 1065L1126.57 1048.75L1102.81 1031.25L1086.56 1016.25L1071.55 1002.5L1069.05 998.75L1087.81 985L1101.56 976.25L1115.32 966.25L1116.57 965Z" fill="#01478E"/>
<path d="M994.032 903.75L999.033 905L1010.29 923.75L1024.04 943.75L1045.3 928.75L1062.8 917.5H1065.3V915L1070.3 912.5L1081.56 925L1090.31 935L1101.56 947.5L1119.07 965L1101.56 977.5L1079.06 992.5L1070.3 998.75L1065.3 996.25L1051.55 981.25L1041.55 968.75L1032.79 957.5L1021.54 965L999.033 981.25L969.025 1000L941.517 1015L912.759 1030L881.5 1043.75L875.248 1046.25H871.497L861.494 1030L856.493 1020L845.24 1000L832.736 1002.5L825.234 1005L818.982 1003.75L802.728 975L797.726 965L802.728 962.5L853.992 952.5L892.753 942.5L924.012 932.5L955.271 921.25L989.03 906.25L994.032 903.75Z" fill="#018A80"/>
<path d="M670.19 876.25L681.443 877.5V880H683.944L685.194 915H740.21L793.975 912.5L808.979 911.25H825.234V926.25L822.733 946.25L820.233 951.25L792.725 963.75L782.722 967.5L760.216 968.75L741.46 970H688.945L660.187 967.5L630.179 962.5L601.421 955L570.162 942.5L546.405 928.75L528.9 915L520.147 906.25L521.398 903.75L670.19 876.25Z" fill="#56B16F"/>
<path d="M1266.61 1105H1300.37L1327.88 1106.25L1325.38 1113.75L1310.37 1137.5L1300.37 1151.25H1297.87L1294.12 1158.75H1291.62L1289.12 1163.75L1274.11 1180L1264.11 1190L1254.11 1198.75L1245.35 1205H1231.6L1210.34 1203.75H1167.83L1146.58 1201.25L1126.57 1202.5L1117.82 1201.25L1081.56 1198.75L1069.05 1197.5L1066.55 1195L1077.81 1180L1096.56 1161.25L1114.07 1148.75L1131.57 1138.75L1152.83 1128.75L1182.84 1118.75L1215.34 1111.25L1251.6 1106.25L1266.61 1105Z" fill="#512F9E"/>
<path d="M1105.31 592.5L1111.57 598.75L1129.07 621.25L1147.83 646.25L1165.33 668.75L1176.58 683.75L1216.59 736.25L1217.85 743.75L1207.84 775L1199.09 812.5L1194.09 850L1192.84 871.25V892.5L1196.59 941.25L1186.59 951.25H1171.58L1169.08 948.75L1166.58 922.5V878.75L1162.83 880L1132.82 876.25L1124.07 873.75L1126.57 853.75L1132.82 820L1142.82 785L1151.58 760L1155.33 752.5L1152.83 745L1149.08 738.75L1139.07 718.75L1129.07 693.75L1119.07 662.5L1110.31 626.25L1105.31 597.5V592.5Z" fill="#45E9DE"/>
<path d="M1087.81 1017.5L1096.56 1025L1117.82 1041.25L1137.82 1055L1151.58 1063.75L1145.32 1075L1129.07 1095L1117.82 1108.75L1106.56 1120L1096.56 1128.75L1082.81 1140H1080.31V1142.5L1057.8 1156.25L1039.04 1163.75L1025.29 1167.5L1005.29 1168.75L1007.79 1163.75L1017.79 1148.75L1035.29 1123.75L1042.8 1112.5L1029.04 1123.75L1007.79 1138.75L985.279 1151.25L964.023 1161.25L940.267 1168.75L914.009 1172.5H901.506L889.002 1171.25L886.501 1170L889.002 1165L929.013 1125L937.766 1115L946.518 1106.25H952.77L965.274 1117.5L966.524 1120L979.028 1115V1112.5L999.033 1098.75L1016.54 1085L1032.79 1071.25L1045.3 1060L1055.3 1051.25L1080.31 1026.25L1087.81 1017.5Z" fill="#04695C"/>
<path d="M531.401 767.5L538.903 770L570.162 782.5L592.668 790L621.426 798.75L655.186 807.5L683.944 812.5L732.708 820L777.721 823.75H832.736L871.497 821.25L885.251 820L884.001 837.5L878.999 867.5L871.497 870L857.743 871.25H768.968L723.955 867.5L680.193 858.75L645.183 848.75L613.924 836.25L590.167 823.75L575.163 813.75L562.66 803.75L550.156 792.5L538.903 780L531.401 768.75V767.5Z" fill="#55B170"/>
<path d="M588.917 647.5L600.17 648.75L756.464 680L770.218 691.25L790.224 707.5L812.73 723.75L816.482 726.25L813.981 732.5L807.729 742.5L801.477 753.75L788.974 773.75L786.473 777.5L775.22 776.25L756.464 771.25L705.2 770V768.75L745.211 767.5L720.204 758.75L695.197 747.5L668.94 733.75L650.184 721.25L637.681 711.25L625.177 700L613.924 688.75L600.17 670L588.917 648.75V647.5Z" fill="#98D164"/>
<path d="M991.531 781.25H995.282L1009.04 811.25L1026.54 845L1032.79 855L1044.05 847.5L1050.3 840L1055.3 836.25L1069.05 856.25L1085.31 877.5L1099.06 893.75L1110.31 906.25L1135.32 931.25L1141.57 935L1155.33 947.5L1164.08 953.75L1161.58 960L1147.83 970L1136.57 978.75L1130.32 976.25L1119.07 966.25L1091.56 938.75L1082.81 928.75L1070.3 913.75L1065.3 915V917.5L1041.55 932.5L1027.79 942.5H1025.29L1024.04 945L1010.29 926.25L1000.28 908.75L990.281 892.5L975.276 863.75L964.023 840L952.77 811.25L954.02 806.25L972.776 793.75L991.531 781.25Z" fill="#31B1BF"/>
<path d="M1049.05 1382.5L1055.3 1385L1069.05 1398.75L1079.06 1407.5L1095.31 1422.5L1099.06 1425L1096.56 1411.25L1095.31 1405V1396.25L1112.82 1402.5L1136.57 1412.5L1142.82 1415L1144.07 1420L1140.32 1441.25L1134.07 1460L1126.57 1473.75L1117.82 1485L1115.32 1482.5L1101.56 1430L1094.06 1455L1082.81 1478.75L1074.05 1491.25L1062.8 1503.75L1052.8 1512.5H1051.55L1050.3 1495V1437.5H1047.8L1045.3 1443.75L1035.29 1458.75L1021.54 1473.75L1012.79 1482.5L995.282 1493.75L989.03 1496.25L985.279 1495L1006.54 1402.5L1009.04 1395L1015.29 1396.25L1036.54 1411.25L1045.3 1417.5L1049.05 1418.75V1382.5Z" fill="#FB9B7C"/>
<path d="M1316.62 877.5L1340.38 878.75L1365.39 883.75L1391.64 893.75L1409.15 903.75L1425.4 916.25L1439.16 930L1450.41 947.5L1455.41 958.75L1454.16 961.25L1429.16 947.5L1404.15 937.5L1377.89 930L1357.89 926.25L1345.38 925H1301.62L1272.86 928.75L1237.85 937.5L1212.84 946.25L1185.34 958.75L1179.08 961.25L1184.09 953.75L1195.34 941.25L1204.09 931.25L1214.09 921.25L1231.6 907.5L1250.35 895L1269.11 886.25L1290.37 880L1316.62 877.5Z" fill="#E483B9"/>
<path d="M827.735 1070L830.235 1071.25V1075L835.237 1080L850.241 1100L853.992 1103.75L877.749 1092.5L884.001 1093.75L895.254 1107.5L905.257 1121.25L906.507 1125L877.749 1137.5L853.992 1146.25L825.234 1153.75L803.978 1157.5L790.224 1158.75H765.217L738.96 1155L718.954 1148.75L725.206 1142.5L788.974 1097.5L813.981 1080L827.735 1070Z" fill="#1C977A"/>
<path d="M932.765 526.25L935.265 530L945.268 550L955.271 568.75L982.779 610L986.53 613.75V617.5H989.03L990.281 622.5H992.782L997.783 630L1004.03 637.5V640H1006.54L1017.79 653.75L1031.54 668.75L1059.05 696.25L1072.8 707.5L1090.31 721.25L1107.81 733.75L1105.31 738.75L1087.81 752.5L1084.06 756.25H1081.56L1080.31 758.75L1062.8 746.25L1049.05 735L1035.29 722.5L1025.29 713.75L991.531 680L981.528 666.25L970.275 651.25L955.271 627.5L942.767 601.25L936.516 582.5L932.765 566.25L931.514 556.25V532.5L932.765 526.25Z" fill="#54B070"/>
<path d="M1025.29 488.75L1029.04 490L1047.8 515L1065.3 537.5L1080.31 557.5L1105.31 590L1112.82 632.5L1115.32 642.5L1114.07 648.75L1105.31 651.25L1076.56 660L1072.8 661.25L1064.05 650L1056.55 638.75L1044.05 615L1035.29 596.25L1025.29 566.25L1021.54 548.75L1020.29 540V511.25L1025.29 488.75Z" fill="#98D164"/>
<path d="M1151.58 760L1156.58 761.25L1185.34 765L1189.09 766.25L1186.59 778.75L1177.83 811.25L1174.08 828.75H1195.34L1192.84 871.25V892.5L1196.59 941.25L1186.59 951.25H1171.58L1169.08 948.75L1166.58 922.5V878.75L1162.83 880L1132.82 876.25L1124.07 873.75L1126.57 853.75L1132.82 820L1142.82 785L1151.58 760Z" fill="#2EA9B8"/>
<path d="M1031.54 956.25L1041.55 966.25L1040.29 971.25L1017.79 993.75L1007.79 1002.5L995.282 1013.75L981.528 1025L959.022 1042.5L937.766 1057.5L912.759 1073.75L889.002 1087.5L860.244 1102.5L852.742 1105L840.238 1088.75L832.736 1078.75V1076.25L827.735 1073.75L831.486 1067.5L850.241 1055L896.504 1036.25L937.766 1016.25L966.524 1000L991.531 985L1016.54 967.5L1031.54 956.25Z" fill="#04695C"/>
<path d="M682.694 1008.75L686.445 1010L696.447 1030L698.948 1036.25L708.951 1033.75H718.954L721.455 1041.25L736.459 1066.25L742.711 1077.5L741.46 1083.75L717.704 1086.25H670.19L642.682 1082.5L617.675 1076.25L598.92 1068.75L577.664 1057.5L576.413 1053.75L632.679 1030L682.694 1008.75Z" fill="#68BB6C"/>
<path d="M533.901 767.5H660.187L740.21 770L750.213 771.25L752.713 781.25L756.464 800L758.965 807.5V817.5L757.715 822.5H745.211L706.45 817.5L665.189 810L645.183 806.25L605.172 795L573.913 785L547.655 775L533.901 768.75V767.5Z" fill="#3C915F"/>
<path d="M994.032 903.75L999.033 905L1007.79 918.75L1006.54 923.75L990.281 933.75L967.774 946.25L941.517 960L905.257 976.25L862.745 992.5L825.234 1005L818.982 1003.75L802.728 975L797.726 965L802.728 962.5L853.992 952.5L892.753 942.5L924.012 932.5L955.271 921.25L989.03 906.25L994.032 903.75Z" fill="#04695C"/>
<path d="M857.743 600L863.995 602.5L900.255 623.75L935.265 645L964.023 662.5L961.523 670L949.019 686.25V690L957.772 698.75L971.525 710L985.279 722.5L991.531 727.5L975.276 725L912.759 712.5L899.005 697.5L885.251 678.75L873.998 660L863.995 637.5L857.743 611.25V600Z" fill="#56B16F"/>
<path d="M531.401 767.5L538.903 770L570.162 782.5L592.668 790L621.426 798.75L655.186 807.5L683.944 812.5L697.698 815L702.699 817.5L700.199 837.5L696.447 857.5L690.196 860L675.191 857.5L641.432 847.5L611.423 835L590.167 823.75L575.163 813.75L562.66 803.75L550.156 792.5L538.903 780L531.401 768.75V767.5Z" fill="#97D065"/>
<path d="M1011.54 1088.75L1016.54 1091.25L1039.04 1106.25L1042.8 1112.5L1029.04 1123.75L1007.79 1138.75L985.279 1151.25L964.023 1161.25L940.267 1168.75L914.009 1172.5H901.506L889.002 1171.25L886.501 1170L889.002 1165L929.013 1125L937.766 1115L946.518 1106.25H952.77L965.274 1117.5L966.524 1120L979.028 1115V1112.5L999.033 1098.75L1011.54 1088.75Z" fill="#1C977A"/>
<path d="M568.911 895H575.163L577.664 897.5L578.914 910L582.665 911.25L670.19 916.25L667.689 941.25L665.189 961.25H662.688L661.438 965L658.937 966.25L642.682 965L610.173 957.5L587.667 950L565.16 940L542.654 926.25L526.399 912.5L520.147 905L527.65 902.5L568.911 895Z" fill="#98D164"/>
<path d="M588.917 647.5L600.17 648.75L712.702 671.25V675L698.948 700L678.943 732.5L677.692 736.25L671.44 735L651.435 722.5L637.681 711.25L625.177 700L613.924 688.75L600.17 670L588.917 648.75V647.5Z" fill="#CAE85A"/>
<path d="M806.479 1010L810.23 1011.25L826.484 1040L833.986 1052.5L836.487 1061.25L797.726 1072.5L765.217 1080L750.213 1082.5H742.711L738.96 1072.5L728.957 1055L722.705 1045L718.954 1040V1033.75L716.453 1032.5L766.467 1021.25L778.971 1017.5L806.479 1010Z" fill="#55B16F"/>
<path d="M1124.07 873.75L1162.83 878.75H1166.58L1167.83 922.5L1170.33 948.75L1171.58 950L1186.59 951.25L1179.08 962.5H1176.58V965L1181.59 967.5L1205.34 982.5L1215.34 988.75L1209.09 996.25L1194.09 1007.5L1189.09 1010L1187.84 1013.75L1181.59 1011.25L1164.08 1001.25L1141.57 985L1135.32 978.75L1155.33 962.5L1161.58 960L1164.08 953.75L1159.08 951.25L1142.82 937.5L1139.07 933.75L1132.82 930L1121.57 918.75L1122.82 883.75L1124.07 873.75Z" fill="#1C85AE"/>
<path d="M808.979 911.25H825.234V926.25L822.733 946.25L820.233 951.25L792.725 963.75L782.722 967.5L760.216 968.75H717.703L722.705 931.25L723.955 916.25L740.21 915L793.975 912.5L808.979 911.25Z" fill="#55B16F"/>
<path d="M967.774 851.25L971.525 852.5L981.528 873.75L980.278 877.5L945.268 888.75L909.008 897.5L868.996 905L838.988 908.75H828.985L826.484 898.75V872.5L882.75 867.5L924.012 861.25L957.772 853.75L967.774 851.25Z" fill="#03695C"/>
<path d="M962.773 663.75L969.025 665L992.781 680L1032.79 720L1046.55 731.25L1049.05 735L1047.8 737.5H1045.3L1042.8 742.5L1036.54 748.75L1032.79 757.5L1052.8 771.25L1055.3 772.5V775L1047.8 781.25H1045.3V783.75L1032.79 793.75L1029.04 795L1019.04 775L1007.79 751.25L999.033 730L989.03 726.25L971.525 711.25L952.77 695L946.518 687.5L957.772 673.75L961.523 668.75L962.773 663.75Z" fill="#1B8169"/>
<path d="M980.278 876.25H982.779L996.533 901.25L997.783 903.75L961.523 920L927.763 932.5L896.504 942.5L858.994 952.5L843.989 955L838.988 945L842.739 941.25L877.749 926.25L887.752 921.25L890.252 910V900L925.262 892.5L957.772 883.75L980.278 876.25Z" fill="#018A7F"/>
<path d="M1215.34 988.75L1235.35 998.75L1259.11 1010L1289.12 1021.25L1319.12 1030L1350.38 1036.25L1352.88 1037.5L1351.63 1048.75L1349.13 1057.5L1347.88 1055H1322.88L1290.37 1051.25L1256.61 1043.75L1226.6 1033.75L1204.09 1023.75L1186.59 1015L1189.09 1010L1210.34 993.75L1215.34 988.75Z" fill="#0D609C"/>
<path d="M816.482 727.5L827.735 733.75L848.991 747.5L875.248 762.5L907.757 778.75L936.516 790L944.018 792.5L941.517 795H889.002L871.497 793.75L866.496 792.5L848.991 791.25L795.225 781.25L785.223 778.75L790.224 770L803.978 747.5L811.48 733.75L816.482 727.5Z" fill="#54B070"/>
<path d="M934.015 527.5L944.018 535L952.77 543.75L962.773 552.5L977.777 566.25L987.78 575L1002.78 588.75L1012.79 597.5L1027.79 611.25L1037.79 620L1052.8 633.75L1056.55 638.75L1051.55 647.5L1046.55 655L1039.04 668.75L1034.04 672.5L1020.29 658.75L1009.04 645L1006.54 640H1004.03L992.781 625V622.5H990.281L989.03 617.5H986.53V613.75L982.779 612.5L959.022 576.25L947.769 557.5L934.015 530V527.5Z" fill="#3D925F"/>
<path d="M1069.05 912.5L1075.3 917.5L1086.56 931.25L1104.06 950L1119.07 965L1101.56 977.5L1079.06 992.5L1070.3 998.75L1065.3 996.25L1051.55 981.25L1031.54 956.25L1024.04 945L1029.04 940L1062.8 917.5H1065.3V915L1069.05 912.5Z" fill="#1C86AF"/>
<path d="M1069.05 1002.5L1074.05 1003.75L1087.81 1016.25L1085.31 1021.25L1071.55 1036.25L1047.8 1060L1037.79 1068.75L1021.54 1082.5L1004.03 1096.25L981.528 1112.5H979.028V1115L969.025 1121.25L965.274 1120L957.772 1111.25L952.77 1107.5L947.769 1105L959.022 1095L964.023 1090L984.029 1076.25L1007.79 1058.75L1025.29 1043.75L1039.04 1032.5L1051.55 1020L1061.55 1011.25L1069.05 1002.5Z" fill="#04695C"/>
<path d="M717.703 867.5H737.709L768.968 870L770.218 875V902.5L768.968 913.75L763.967 915L740.21 916.25H700.199L685.194 915L683.944 902.5V880H681.443V877.5H677.692V875L717.703 867.5Z" fill="#3C915F"/>
<path d="M947.769 807.5H952.77L966.524 842.5L969.025 847.5L967.774 852.5L930.264 861.25L892.753 867.5L875.248 868.75L878.999 867.5L880.25 852.5L885.251 820L886.501 818.75L931.514 811.25L947.769 807.5Z" fill="#1A967A"/>
<path d="M991.531 781.25H995.282L1009.04 811.25L1026.54 845L1021.54 848.75L984.029 873.75H980.278L970.275 852.5L961.523 833.75L952.77 811.25L954.02 806.25L972.776 793.75L991.531 781.25Z" fill="#34BEC9"/>
<path d="M1087.81 1017.5L1096.56 1025L1112.82 1037.5L1110.31 1042.5L1099.06 1056.25L1087.81 1068.75L1074.05 1083.75L1064.05 1093.75L1044.05 1111.25H1041.55L1035.29 1105L1015.29 1091.25V1086.25L1032.79 1071.25L1045.3 1060L1055.3 1051.25L1080.31 1026.25L1087.81 1017.5Z" fill="#018A7F"/>
<path d="M1116.57 965L1121.57 967.5L1137.82 981.25L1160.33 997.5L1164.08 1000L1161.58 1005L1147.83 1013.75L1134.07 1023.75L1125.32 1028.75L1115.32 1036.25L1112.82 1038.75L1100.31 1028.75L1087.81 1017.5L1071.55 1002.5L1069.05 998.75L1087.81 985L1101.56 976.25L1115.32 966.25L1116.57 965Z" fill="#0D609D"/>
<path d="M776.47 697.5L787.723 705L803.978 717.5L816.482 726.25L813.981 732.5L807.729 742.5L801.477 753.75L788.974 773.75L786.473 777.5L775.22 776.25L756.465 771.25L705.2 770V768.75L745.211 767.5L736.459 763.75L738.96 758.75L741.46 756.25L748.962 745L760.216 726.25L772.719 705L773.97 700L776.47 697.5Z" fill="#78C26B"/>
<path d="M932.765 526.25L935.265 530L945.268 550L955.271 568.75L982.779 610L986.53 613.75V617.5H989.03L990.281 622.5H992.782L997.783 630L1005.29 640V642.5L991.531 653.75L982.779 660L977.777 661.25L967.774 647.5L954.021 625L942.767 601.25L936.516 582.5L932.765 566.25L931.514 556.25V532.5L932.765 526.25Z" fill="#97D065"/>
<path d="M857.743 600L863.995 602.5L894.003 620L892.753 626.25L889.002 632.5L907.757 651.25L916.51 661.25L926.513 670L937.766 681.25L931.514 687.5L929.013 688.75L922.762 695L912.759 703.75L905.257 705L891.503 687.5L878.999 668.75L868.996 650L861.494 628.75L857.743 611.25V600Z" fill="#98D164"/>
<path d="M1025.29 488.75L1029.04 490L1047.8 515L1065.3 537.5L1080.31 557.5L1085.31 565L1040.29 580L1030.29 582.5L1022.79 556.25L1020.29 540V511.25L1025.29 488.75Z" fill="#CAE85A"/>
<path d="M740.21 770H756.465L801.477 781.25L821.483 785L822.733 812.5L821.483 822.5L832.736 823.75V825H777.721L758.965 823.75L757.715 817.5V807.5L752.713 790L750.213 771.25H740.21V770Z" fill="#257E5C"/>
<path d="M1172.83 826.25L1174.08 828.75H1195.34L1192.84 871.25V892.5L1196.59 941.25L1186.59 951.25H1171.58L1169.08 948.75L1166.58 922.5V882.5L1169.08 851.25L1172.83 826.25Z" fill="#35BFCA"/>
<path d="M698.948 816.25L713.952 817.5L758.965 822.5L766.467 825L763.967 842.5L760.216 862.5L758.965 868.75H737.709L718.954 866.25L691.446 861.25L690.196 858.75L696.448 853.75L700.199 832.5L701.449 820L702.699 817.5L698.948 816.25Z" fill="#67BA6D"/>
<path d="M1120.32 1053.75H1121.57L1120.32 1066.25L1107.81 1107.5L1106.56 1120L1096.56 1128.75L1082.81 1140H1080.31V1142.5L1057.8 1156.25L1039.04 1163.75L1025.29 1167.5L1005.29 1168.75L1006.54 1166.25L1020.29 1157.5L1040.29 1141.25L1054.05 1130L1062.8 1121.25H1065.3L1067.8 1116.25L1089.06 1095L1096.56 1085L1111.57 1066.25L1120.32 1053.75Z" fill="#1A967A"/>
<path d="M670.19 916.25H723.955V931.25L718.954 967.5L741.46 968.75V970H688.945L660.187 967.5L658.937 965L662.688 961.25H665.189L666.439 941.25L670.19 916.25Z" fill="#69BB6C"/>
<path d="M1047.8 735L1052.8 737.5L1072.8 752.5L1080.31 757.5V760L1086.56 762.5L1110.31 777.5L1132.82 790L1140.32 793.75L1137.82 806.25L1135.32 815L1124.07 811.25L1090.31 795L1066.55 781.25L1049.05 770L1031.54 757.5L1036.54 747.5L1045.3 737.5H1047.8V735Z" fill="#04695C"/>
<path d="M1055.3 773.75L1069.05 781.25L1095.31 796.25L1124.07 810L1134.07 815L1132.82 825L1130.32 838.75L1129.07 836.25L1119.07 835L1085.31 823.75L1047.8 807.5L1035.29 801.25L1032.79 802.5L1030.29 797.5V793.75L1040.29 786.25L1045.3 783.75V781.25L1055.3 773.75Z" fill="#018A7F"/>
<path d="M533.901 767.5H660.187V768.75L653.935 770L655.186 773.75L656.436 787.5V798.75L660.187 800L657.686 807.5L660.187 808.75L650.184 807.5L621.426 800L585.166 788.75L560.159 780L533.901 768.75V767.5Z" fill="#55B16F"/>
<path d="M660.187 1043.75H666.439L676.442 1061.25L687.695 1080L688.945 1085L686.445 1086.25H670.19L642.682 1082.5L617.675 1076.25L598.92 1068.75L577.664 1057.5L576.413 1053.75L588.917 1048.75L592.668 1050V1052.5L652.685 1045L660.187 1043.75Z" fill="#98D164"/>
<path d="M1109.06 906.25L1117.82 913.75L1135.32 931.25L1141.57 935L1155.33 947.5L1164.08 953.75L1161.58 960L1147.83 970L1136.57 978.75L1130.32 976.25L1119.07 966.25L1091.56 938.75L1082.81 928.75L1081.56 926.25L1087.81 922.5L1101.56 911.25L1105.31 907.5L1109.06 906.25Z" fill="#2EA9B8"/>
<path d="M1114.07 647.5L1116.57 648.75L1125.32 678.75L1135.32 707.5L1147.83 735L1155.33 747.5L1154.08 750L1141.57 738.75L1131.57 730L1119.07 718.75L1110.31 708.75L1096.56 693.75L1086.56 681.25L1072.8 662.5L1076.56 658.75L1105.31 650L1114.07 647.5Z" fill="#54B070"/>
<path d="M818.982 1120H823.984L832.736 1131.25L842.739 1143.75V1147.5L845.24 1148.75L818.982 1155L803.978 1157.5L790.224 1158.75H765.217L738.96 1155L718.954 1148.75V1147.5L751.463 1141.25L777.721 1133.75L818.982 1120Z" fill="#56B16F"/>
<path d="M741.46 983.75H743.961V987.5L748.962 990L765.217 1020L766.467 1022.5L716.453 1033.75L698.948 1036.25L687.695 1015L685.194 1008.75L688.945 1006.25L726.456 990L741.46 983.75Z" fill="#3D925F"/>
<path d="M768.968 871.25H837.737V872.5H826.484L827.735 876.25V898.75L828.985 905V908.75L832.736 910L793.975 913.75L763.967 915L768.968 913.75V871.25Z" fill="#1B8169"/>
<path d="M882.75 820H885.251L884.001 837.5L878.999 867.5L871.497 870L857.743 871.25H828.985V861.25L833.987 830L835.237 825L832.736 823.75L871.497 821.25L882.75 820Z" fill="#37A375"/>
<path d="M884.001 901.25H891.503L890.252 917.5L887.752 922.5L872.747 930L840.238 943.75L843.989 955L836.487 957.5L802.728 963.75H792.725L795.226 961.25L820.233 950L822.733 935L825.234 911.25L821.483 910L876.499 902.5L884.001 901.25Z" fill="#1A967A"/>
<path d="M1095.31 1396.25L1112.82 1402.5L1136.57 1412.5L1142.82 1415L1144.07 1420L1140.32 1441.25L1134.07 1460L1126.57 1473.75L1117.82 1485L1115.32 1482.5L1100.31 1423.75L1095.31 1405V1396.25Z" fill="#FECD4C"/>
<path d="M1124.07 873.75L1162.83 878.75H1166.58L1167.83 933.75L1141.57 931.25L1135.32 932.5L1121.57 918.75L1122.82 883.75L1124.07 873.75Z" fill="#1C86AF"/>
<path d="M962.773 663.75L969.025 665L992.781 680L1017.79 705L1010.29 713.75L997.783 727.5L994.032 728.75L982.779 721.25L969.025 708.75L955.271 697.5L946.518 688.75L954.02 677.5L961.523 668.75L962.773 663.75Z" fill="#3C915F"/>
<path d="M806.479 1010L810.23 1011.25L826.484 1040L833.986 1052.5L836.487 1061.25L802.728 1071.25H796.476L795.225 1063.75L770.218 1021.25L775.22 1018.75L806.479 1010Z" fill="#38A475"/>
<path d="M568.911 895H575.163L577.664 897.5L578.914 910L593.918 912.5V926.25L590.167 948.75L587.667 950L565.16 940L542.654 926.25L526.399 912.5L520.147 905L527.65 902.5L568.911 895Z" fill="#B4DE5E"/>
<path d="M1107.81 733.75L1121.57 742.5L1147.83 757.5L1151.58 760L1150.33 766.25L1141.57 792.5L1137.82 793.75L1114.07 781.25L1084.06 762.5L1080.31 758.75L1086.56 752.5L1102.81 738.75H1105.31L1107.81 733.75Z" fill="#1A967A"/>
<path d="M1151.58 760L1156.58 761.25L1185.34 765L1189.09 766.25L1186.59 778.75L1177.83 811.25L1175.33 823.75L1174.08 818.75L1159.08 817.5L1139.07 815L1136.57 813.75L1137.82 802.5L1145.32 777.5L1151.58 760Z" fill="#34BEC9"/>
<path d="M841.489 998.75L846.49 1000L858.994 1022.5L868.996 1040L871.497 1043.75V1047.5L850.241 1056.25L840.238 1060H833.986L832.736 1052.5L822.733 1035L808.979 1011.25L810.23 1008.75L841.489 998.75Z" fill="#1B977A"/>
<path d="M531.401 767.5L538.903 770L570.162 782.5L615.174 797.5L616.425 801.25L613.924 812.5L611.423 833.75L603.921 831.25L583.916 820L563.91 805L548.906 791.25L535.152 775L531.401 767.5Z" fill="#B3DD5E"/>
<path d="M808.979 911.25H825.234V926.25L822.733 946.25L820.233 951.25L792.725 963.75L785.223 966.25L776.47 965L781.472 926.25V916.25L775.22 915V913.75L808.979 911.25Z" fill="#38A476"/>
<path d="M682.694 1008.75L686.445 1010L700.199 1037.5L663.938 1043.75L643.933 1047.5L603.921 1052.5H592.668L591.418 1047.5L658.937 1018.75L682.694 1008.75Z" fill="#56B16F"/>
<path d="M1151.58 1348.75H1159.08L1161.58 1356.25L1162.83 1365V1393.75L1157.83 1415L1152.83 1423.75L1149.08 1420L1139.07 1401.25L1126.57 1375L1117.82 1358.75V1353.75L1151.58 1348.75Z" fill="#FECD4C"/>
<path d="M858.994 755L866.496 757.5L890.252 770L914.009 781.25L940.267 791.25L944.018 793.75L941.517 795H889.002L871.497 793.75L866.496 792.5L848.991 791.25L841.489 788.75L843.989 781.25L857.743 757.5L858.994 755Z" fill="#37A376"/>
<path d="M954.02 1130L959.022 1131.25L971.525 1140L981.528 1147.5L982.779 1152.5L964.023 1161.25L940.267 1168.75L914.009 1172.5H901.506L889.002 1171.25L886.501 1170L889.002 1165L912.759 1141.25V1145L892.753 1165L912.759 1155L942.767 1137.5L954.02 1130Z" fill="#56B16F"/>
<path d="M1034.04 800L1059.05 811.25L1089.06 823.75L1122.82 835L1129.07 836.25V846.25L1127.82 853.75L1114.07 852.5L1080.31 845L1055.3 837.5L1046.55 825L1034.04 803.75V800Z" fill="#04695C"/>
<path d="M1105.31 611.25L1109.06 612.5L1115.32 642.5L1114.07 648.75L1105.31 651.25L1076.56 660L1072.8 661.25L1064.05 650L1056.55 638.75L1052.8 631.25L1054.05 626.25L1062.8 625L1105.31 611.25Z" fill="#79C26B"/>
<path d="M797.726 1091.25L800.227 1092.5L798.977 1096.25L806.479 1107.5L810.23 1108.75L817.732 1121.25L797.726 1128.75L761.466 1140L727.706 1147.5H720.204L726.456 1141.25L746.462 1127.5L788.974 1097.5L797.726 1091.25Z" fill="#3D925F"/>
<path d="M685.194 666.25L712.702 671.25V675L698.948 700L678.942 732.5L677.692 736.25L671.44 735L653.935 723.75L656.436 717.5L673.941 687.5L682.694 673.75L685.194 666.25Z" fill="#B4DE5E"/>
<path d="M1050.3 1430L1056.55 1432.5L1067.8 1443.75L1077.81 1452.5L1089.06 1462.5L1087.81 1468.75L1076.56 1488.75L1061.55 1505L1051.55 1512.5L1050.3 1495V1430Z" fill="#FECE4C"/>
<path d="M1055.3 638.75L1060.3 641.25L1071.55 658.75L1089.06 682.5L1081.56 693.75L1071.55 706.25L1066.55 703.75L1047.8 686.25L1035.29 673.75L1037.79 668.75L1045.3 655L1054.05 642.5L1055.3 638.75Z" fill="#257E5C"/>
<path d="M1005.29 640L1011.54 646.25L1026.54 663.75L1037.79 675L1035.29 680L1029.04 685H1026.54L1024.04 690L1017.79 695H1015.29V697.5L1010.29 698.75L991.531 680L981.528 666.25L979.028 663.75L980.278 658.75L986.53 656.25L1000.28 645L1005.29 642.5V640Z" fill="#67BA6D"/>
<path d="M795.225 712.5L800.227 715L816.481 726.25L813.981 732.5L807.729 742.5L801.477 753.75L788.974 773.75L786.473 777.5L775.22 776.25L761.466 772.5L766.467 760L782.722 732.5L795.225 712.5Z" fill="#67BA6D"/>
<path d="M934.015 527.5L944.018 535L952.77 543.75L962.773 552.5L977.777 566.25L987.78 575L1002.78 588.75L994.032 602.5L985.279 613.75L980.278 608.75L959.022 576.25L947.769 557.5L934.015 530V527.5Z" fill="#56B16F"/>
<path d="M937.766 681.25L947.769 688.75L957.772 698.75L971.525 710L985.279 722.5L991.531 727.5L975.277 725L912.759 712.5L906.507 706.25L907.757 703.75L916.51 700L930.264 686.25L937.766 681.25Z" fill="#66BA6D"/>
<path d="M827.735 1070L830.235 1071.25V1075L835.237 1080L850.241 1100L852.742 1102.5V1106.25L833.986 1115L817.732 1121.25L810.23 1111.25V1108.75L805.228 1107.5L797.726 1096.25L800.227 1090L818.982 1076.25L827.735 1070Z" fill="#1C8169"/>
<path d="M1086.56 1362.5L1104.06 1368.75L1122.82 1376.25L1126.57 1377.5L1127.82 1375L1140.32 1401.25L1144.07 1407.5V1418.75L1142.82 1415L1130.32 1411.25L1100.31 1398.75L1096.56 1397.5L1094.06 1400L1086.56 1368.75V1362.5Z" fill="#FB9B7C"/>
<path d="M1190.34 892.5H1192.84L1196.59 941.25L1186.59 951.25H1171.58L1169.08 948.75L1166.58 922.5V893.75L1190.34 895V892.5Z" fill="#2FAAB9"/>
<path d="M698.948 816.25L713.952 817.5L732.708 820L735.209 822.5L731.457 832.5L727.706 857.5V866.25L723.955 867.5L691.446 861.25L690.196 858.75L696.448 853.75L700.199 832.5L701.449 820L702.699 817.5L698.948 816.25Z" fill="#7AC36A"/>
<path d="M947.769 807.5H952.77L966.524 842.5L969.025 847.5L967.774 852.5L930.264 861.25L927.763 860L930.264 838.75L935.265 811.25L947.769 807.5Z" fill="#0E907D"/>
<path d="M1149.08 1318.75H1151.58L1159.08 1343.75V1348.75L1125.32 1353.75H1117.82L1116.57 1356.25L1102.81 1327.5L1105.31 1325L1149.08 1318.75Z" fill="#FB9B7C"/>
<path d="M1076.56 711.25L1086.56 718.75L1107.81 733.75L1105.31 738.75L1087.81 752.5L1084.06 756.25H1081.56L1080.31 758.75L1062.8 746.25L1050.3 736.25L1057.8 727.5L1075.3 713.75L1076.56 711.25Z" fill="#37A376"/>
<path d="M670.19 916.25H695.197L693.947 941.25L690.196 966.25L686.445 968.75H671.44L660.187 967.5L658.937 965L662.688 961.25H665.189L666.439 941.25L670.19 916.25Z" fill="#7AC36A"/>
<path d="M622.677 885L631.429 886.25L632.679 890L633.93 912.5L638.931 915H625.177L582.665 912.5L577.664 910L576.413 897.5L575.163 893.75L622.677 885Z" fill="#7BC36A"/>
<path d="M1124.07 1047.5L1130.32 1050L1151.58 1063.75L1145.32 1075L1129.07 1095L1117.82 1108.75L1107.81 1118.75L1105.31 1113.75L1114.07 1082.5L1120.32 1060L1121.57 1051.25L1124.07 1047.5Z" fill="#0E907C"/>
<path d="M857.743 600L863.995 602.5L894.003 620L892.753 626.25L889.002 632.5L896.504 640V642.5L876.498 660H873.998L863.995 637.5L857.743 611.25V600Z" fill="#B3DD5E"/>
<path d="M999.033 1440L1006.54 1443.75L1029.04 1460L1030.29 1465L1012.79 1482.5L995.282 1493.75L989.03 1496.25L985.279 1495L997.783 1441.25L999.033 1440Z" fill="#FDCE4C"/>
<path d="M966.524 1392.5L972.776 1395L987.78 1408.75L994.032 1413.75L992.781 1418.75L980.278 1427.5L960.272 1437.5L941.517 1442.5H939.016L941.517 1436.25L957.772 1407.5L966.524 1392.5Z" fill="#FB9B7C"/>
<path d="M685.194 1038.75H691.446L705.2 1065L713.952 1080V1083.75L717.703 1086.25H686.445L687.695 1083.75L680.193 1068.75L670.19 1052.5L666.439 1045L663.938 1042.5L685.194 1038.75Z" fill="#7AC36A"/>
<path d="M946.518 1106.25H952.77L965.274 1117.5L967.774 1122.5L959.022 1128.75L950.27 1133.75L927.763 1147.5L894.004 1166.25L891.503 1165L912.759 1143.75L916.51 1137.5L929.014 1125L937.766 1115L946.518 1106.25Z" fill="#28815D"/>
<path d="M862.745 991.25H866.496L876.498 1010L891.503 1035L890.252 1040L875.248 1046.25H871.497L861.494 1030L856.493 1020L845.24 1000V997.5L862.745 991.25Z" fill="#0E907D"/>
<path d="M932.765 526.25L935.265 530L945.268 550L955.271 568.75L965.274 583.75V588.75L947.769 602.5L944.018 603.75L937.766 587.5L932.765 566.25L931.514 556.25V532.5L932.765 526.25Z" fill="#B3DD5E"/>
<path d="M1061.55 1093.75H1065.3L1064.05 1107.5L1062.8 1118.75L1065.3 1121.25L1055.3 1130L1042.8 1141.25L1021.54 1157.5L1007.79 1167.5V1163.75L1017.79 1148.75L1035.29 1123.75L1042.8 1113.75L1046.55 1107.5L1059.05 1096.25L1061.55 1093.75Z" fill="#27805C"/>
<path d="M1125.32 682.5L1127.82 686.25L1137.82 713.75L1147.83 735L1155.33 747.5L1154.08 750L1141.57 738.75L1131.57 730L1119.07 718.75L1110.31 708.75L1099.06 696.25L1102.81 692.5L1122.82 685H1125.32V682.5Z" fill="#37A376"/>
<path d="M1070.3 546.25L1076.56 552.5L1085.31 563.75L1081.56 566.25L1040.3 580L1030.29 582.5L1025.29 566.25L1026.54 561.25L1052.8 553.75L1067.8 548.75H1070.3V546.25Z" fill="#B4DE5E"/>
<path d="M1002.78 736.25L1012.79 743.75L1030.29 756.25L1044.05 765L1055.3 772.5V775L1047.8 781.25H1045.3V783.75L1032.79 793.75L1029.04 795L1019.04 775L1007.79 751.25L1002.78 738.75V736.25Z" fill="#1A967A"/>
<path d="M1067.8 1116.25H1070.3L1067.8 1128.75L1061.55 1151.25L1062.8 1153.75L1042.8 1162.5L1025.29 1167.5L1005.29 1168.75L1006.54 1166.25L1020.29 1157.5L1040.29 1141.25L1054.05 1130L1062.8 1121.25H1065.3L1067.8 1116.25Z" fill="#55B16F"/>
<path d="M741.46 983.75H743.961V987.5L748.962 990L765.217 1020L766.467 1022.5L745.211 1027.5L738.96 1026.25L733.958 1017.5L728.957 1006.25L725.206 1000L726.456 992.5L723.955 991.25L741.46 983.75Z" fill="#3C9260"/>
<path d="M979.028 1113.75L992.782 1122.5L1006.54 1132.5L1009.04 1137.5L990.281 1148.75L985.279 1151.25L981.528 1150L975.277 1143.75L960.272 1133.75L955.271 1128.75L964.023 1123.75L979.028 1113.75Z" fill="#39A475"/>
<path d="M842.739 1110L848.991 1111.25L862.745 1128.75L868.996 1136.25V1138.75L871.497 1140L848.991 1147.5H842.739L838.988 1140L827.735 1127.5L823.984 1122.5V1120L821.483 1118.75L842.739 1110Z" fill="#39A475"/>
<path d="M1110.31 626.25H1111.57L1115.32 642.5L1114.07 648.75L1105.31 651.25L1076.56 660L1072.8 661.25L1064.05 650L1061.55 643.75L1099.06 631.25L1110.31 628.75V626.25Z" fill="#67BA6D"/>
<path d="M531.401 767.5L538.903 770L582.665 787.5L581.415 798.75L578.914 811.25L573.913 812.5L562.66 803.75L550.156 792.5L538.903 780L531.401 768.75V767.5Z" fill="#C9E85A"/>
<path d="M1092.81 1090L1095.31 1091.25L1090.31 1111.25L1084.06 1132.5L1082.81 1140H1080.31V1142.5L1064.05 1152.5L1060.3 1151.25L1069.05 1120L1070.3 1113.75L1089.06 1095L1092.81 1090Z" fill="#38A475"/>
<path d="M1005.29 640L1011.54 646.25L1020.29 656.25L1019.04 661.25L1002.78 673.75L995.282 680H991.531L981.528 666.25L979.028 663.75L980.278 658.75L986.53 656.25L1000.28 645L1005.29 642.5V640Z" fill="#7AC36B"/>
<path d="M1140.32 755L1147.83 757.5L1151.58 760L1150.33 766.25L1141.57 792.5L1137.82 793.75L1114.07 781.25L1112.82 778.75L1119.07 772.5L1130.32 762.5L1140.32 755Z" fill="#0E907D"/>
<path d="M766.467 1137.5L772.719 1138.75L782.722 1152.5L783.972 1156.25L790.224 1157.5V1158.75H765.217L738.96 1155L718.954 1148.75V1147.5L751.463 1141.25L766.467 1137.5Z" fill="#7CC46A"/>
<path d="M892.753 621.25L900.255 623.75L931.514 642.5L925.262 653.75L917.76 662.5L909.008 655L897.755 642.5L887.752 632.5L892.753 622.5V621.25Z" fill="#7BC36A"/>
<path d="M937.766 681.25L947.769 688.75L951.52 692.5V696.25L937.766 707.5L931.514 715L919.011 713.75L911.508 711.25L906.507 706.25L907.757 703.75L916.51 700L930.264 686.25L937.766 681.25Z" fill="#79C26B"/>
<path d="M533.901 767.5H660.187V768.75L586.416 770L588.917 780V787.5L585.166 788.75L560.159 780L533.901 768.75V767.5Z" fill="#7EC46A"/>
<path d="M638.931 1027.5L642.682 1028.75L645.183 1035L650.184 1043.75L652.685 1046.25L603.921 1052.5H592.668L591.418 1047.5L638.931 1027.5Z" fill="#7BC36A"/>
<path d="M892.753 773.75L900.255 775L929.013 787.5L944.018 792.5L941.517 795H889.002L871.497 793.75V792.5H882.75L885.251 785L892.753 773.75Z" fill="#1B967A"/>
<path d="M912.759 1141.25V1145L892.753 1165L912.759 1155L919.011 1151.25H924.012V1153.75L929.013 1155L939.016 1162.5L945.268 1167.5L926.513 1171.25L914.009 1172.5H901.506L889.002 1171.25L886.501 1170L889.002 1165L912.759 1141.25Z" fill="#69BB6C"/>
<path d="M520.147 905L547.655 907.5L563.91 910L565.16 911.25L563.91 927.5L561.409 935L555.157 933.75L541.403 925L527.65 913.75L520.147 905Z" fill="#C9E85A"/>
<path d="M1055.3 773.75L1069.05 781.25V786.25L1060.3 795L1050.3 803.75L1045.3 806.25L1035.29 801.25L1032.79 802.5L1030.29 797.5V793.75L1040.29 786.25L1045.3 783.75V781.25L1055.3 773.75Z" fill="#0F917D"/>
<path d="M1134.07 1053.75L1146.58 1060L1151.58 1065L1140.32 1081.25L1124.07 1101.25L1120.32 1103.75V1095L1131.57 1057.5L1134.07 1053.75Z" fill="#01897F"/>
<path d="M622.677 885L631.429 886.25L632.679 890L633.93 912.5L638.931 915H625.177L611.423 912.5L610.173 892.5L608.923 887.5L622.677 885Z" fill="#69BB6C"/>
<path d="M1089.06 882.5L1109.06 883.75L1122.82 885V917.5L1117.82 915L1100.31 897.5L1089.06 883.75V882.5Z" fill="#03695C"/>
<path d="M877.749 1092.5L884.001 1093.75L895.254 1107.5L905.257 1121.25L906.507 1125L895.254 1130H891.503L887.752 1122.5L880.25 1113.75L868.996 1100L867.746 1097.5L877.749 1092.5Z" fill="#10917C"/>
<path d="M884.001 901.25H891.503L890.252 917.5L887.752 922.5L872.747 930L863.995 932.5L866.496 906.25L868.996 903.75L884.001 901.25Z" fill="#0F917D"/>
<path d="M1011.54 1088.75L1016.54 1091.25L1039.04 1106.25L1042.8 1112.5L1031.54 1121.25L1029.04 1120L1027.79 1116.25L1021.54 1113.75L1001.53 1100L1000.28 1097.5L1011.54 1088.75Z" fill="#10917C"/>
<path d="M1015.29 706.25L1020.29 707.5L1031.54 718.75L1025.29 725L1017.79 730L1014.04 733.75L1007.79 738.75L1001.53 736.25L999.033 730L995.282 727.5L1012.79 710L1015.29 706.25Z" fill="#257E5C"/>
<path d="M782.722 871.25H790.224L793.975 873.75L795.225 878.75L792.725 897.5V906.25L791.474 912.5L786.473 911.25L785.223 907.5L778.971 911.25L777.721 907.5L778.971 898.75L777.721 876.25L778.971 872.5L782.722 871.25Z" fill="#257E5C"/>
<path d="M932.765 526.25L935.265 530L951.52 562.5L950.269 567.5L939.016 575H935.265L932.765 566.25L931.514 556.25V532.5L932.765 526.25Z" fill="#C8E75A"/>
<path d="M568.911 895H575.163L577.664 897.5L578.914 911.25L558.908 910L525.149 906.25L521.398 903.75L568.911 895Z" fill="#99D164"/>
<path d="M781.472 1132.5H788.974L792.725 1138.75L798.977 1145L805.228 1153.75L803.978 1157.5H781.472L782.722 1155L775.22 1143.75L768.968 1136.25L781.472 1132.5Z" fill="#68BB6C"/>
<path d="M756.465 1120L758.965 1121.25L757.715 1123.75L766.467 1137.5L761.466 1140L727.706 1147.5H720.204L726.456 1141.25L746.462 1127.5L756.465 1120Z" fill="#59B26F"/>
<path d="M1141.57 930L1166.58 932.5L1169.08 940L1171.58 960L1160.33 952.5L1142.82 937.5L1137.82 931.25L1141.57 930Z" fill="#0D609D"/>
<path d="M585.166 768.75H601.421L605.172 772.5L608.923 790L607.672 795L592.668 791.25L587.667 788.75V780L585.166 768.75Z" fill="#68BB6C"/>
<path d="M857.743 600L862.745 602.5L870.247 612.5L880.25 623.75L877.749 628.75L868.996 636.25L863.995 635L860.244 623.75L857.743 611.25V600Z" fill="#C9E85A"/>
<path d="M1134.07 711.25L1139.07 716.25L1152.83 743.75L1155.33 750L1145.32 742.5L1130.32 728.75L1120.32 720L1119.07 717.5L1134.07 711.25Z" fill="#1A967A"/>
<path d="M751.463 1141.25L756.464 1142.5L762.716 1152.5V1157.5H752.713L730.207 1152.5L718.954 1148.75V1147.5L751.463 1141.25Z" fill="#98D164"/>
<path d="M836.487 943.75L840.238 945L843.989 955L836.487 957.5L802.728 963.75H792.725L795.226 961.25L817.732 951.25L833.986 945L836.487 943.75Z" fill="#0E907D"/>
<path d="M934.015 527.5L944.018 535L952.77 543.75L962.773 552.5L964.023 555L957.772 566.25H955.271L954.021 568.75L944.018 550L934.015 530V527.5Z" fill="#7CC46A"/>
<path d="M638.931 1027.5L642.682 1028.75L645.183 1035L650.184 1043.75L652.685 1046.25L643.933 1047.5H628.928L622.677 1036.25L626.428 1032.5L638.931 1027.5Z" fill="#69BB6C"/>
<path d="M916.51 636.25L922.762 637.5L931.514 642.5L925.262 653.75L917.76 662.5L909.008 655L905.257 648.75L911.508 642.5L916.51 636.25Z" fill="#69BB6C"/>
<path d="M916.51 1137.5H922.762L927.763 1142.5V1145L930.264 1146.25L894.004 1166.25L891.503 1165L912.759 1143.75L916.51 1137.5Z" fill="#3B915F"/>
<path d="M1034.04 1146.25H1036.54V1156.25L1035.29 1165L1015.29 1168.75H1005.29L1006.54 1166.25L1020.29 1157.5L1034.04 1146.25Z" fill="#68BB6C"/>
<path d="M946.518 1106.25H952.77L965.274 1117.5L967.774 1122.5L957.772 1128.75L951.52 1122.5L944.018 1117.5L939.016 1116.25L942.767 1112.5L946.518 1106.25Z" fill="#1B8168"/>
<path d="M1002.78 736.25L1027.79 755L1029.04 757.5L1016.54 767.5L1012.79 762.5L1002.78 738.75V736.25Z" fill="#37A376"/>
<path d="M861.494 602.5L868.996 605L894.004 620L892.753 626.25L886.501 632.5L877.749 622.5L865.245 608.75L861.494 602.5Z" fill="#99D164"/>
<path d="M962.773 555L969.025 557.5L975.277 565L969.025 575L964.023 582.5L959.022 576.25L955.271 570V566.25H957.772L960.272 560L962.773 555Z" fill="#6ABC6C"/>
<path d="M912.759 1141.25V1145L892.753 1165L902.756 1160H907.757L914.009 1167.5V1172.5H901.506L889.002 1171.25L886.501 1170L889.002 1165L912.759 1141.25Z" fill="#7CC46A"/>
<path d="M967.774 707.5L976.527 715L989.03 725L991.531 727.5L975.277 725L956.521 721.25L961.523 713.75H964.023L966.524 708.75L967.774 707.5Z" fill="#52AF70"/>
<path d="M1114.07 897.5H1122.82V917.5L1117.82 915L1102.81 900V898.75L1114.07 897.5Z" fill="#018A7F"/>
<path d="M1015.29 706.25L1020.29 707.5L1021.54 710H1019.04L1016.54 716.25L1007.79 728.75L1000.28 732.5L999.033 730L995.282 727.5L1012.79 710L1015.29 706.25Z" fill="#1B8269"/>
<path d="M726.456 992.5L731.457 998.75L738.96 1012.5L742.711 1017.5V1023.75L738.96 1026.25L733.958 1017.5L728.957 1006.25L725.206 1000L726.456 992.5Z" fill="#1B977B"/>
<path d="M576.413 1053.75H593.918L598.92 1063.75V1067.5L591.418 1065L576.413 1056.25V1053.75Z" fill="#B4DE5E"/>
<path d="M817.732 951.25L820.233 952.5V960L802.728 963.75H792.725L795.226 961.25L817.732 951.25Z" fill="#1B967A"/>
<path d="M961.523 835L964.023 836.25L969.025 847.5L967.774 852.5L957.772 853.75V845L960.272 836.25L961.523 835Z" fill="#018A7F"/>
<path d="M945.268 1428.75L946.518 1431.25L952.77 1433.75L955.271 1438.75L941.517 1442.5H939.016L941.517 1436.25L945.268 1428.75Z" fill="#FACC4F"/>
<path d="M981.528 1071.25L989.03 1072.5L982.779 1078.75L966.524 1090L964.023 1088.75L981.528 1071.25Z" fill="#12927C"/>
<path d="M1020.29 1157.5H1022.79L1021.54 1166.25L1025.29 1167.5L1005.29 1168.75L1006.54 1166.25L1020.29 1157.5Z" fill="#7DC46A"/>
<path d="M925.262 786.25L944.018 792.5L941.517 795H922.762L925.262 786.25Z" fill="#0E907D"/>
<path d="M533.901 767.5H550.156L552.657 776.25L541.403 772.5L533.901 768.75V767.5Z" fill="#98D165"/>
<path d="M1140.32 782.5L1144.07 783.75L1140.32 793.75L1132.82 791.25L1135.32 786.25L1140.32 782.5Z" fill="#018A80"/>
<path d="M912.759 1141.25V1145L892.753 1165V1167.5L887.752 1168.75L890.252 1163.75L912.759 1141.25Z" fill="#5DAB64"/>
<path d="M1014.04 1153.75L1019.04 1155L1020.29 1158.75L1006.54 1167.5L1009.04 1161.25L1014.04 1153.75Z" fill="#439760"/>
<path d="M1146.58 735L1150.33 738.75L1155.33 747.5L1154.08 750L1142.82 740L1144.07 737.5H1146.58V735Z" fill="#119383"/>
<path d="M934.015 527.5L944.018 535V538.75L939.016 540L934.015 530V527.5Z" fill="#99D164"/>
</g>
<defs>
<clipPath id="clip0_8_2">
<rect width="2000.57" height="2000" fill="white"/>
</clipPath>
</defs>
</svg>
