<svg width="959" height="1024" viewBox="0 0 959 1024" fill="none" xmlns="http://www.w3.org/2000/svg">
<g clip-path="url(#clip0_8_2)">
<path d="M505.291 -0.25L509.042 1L527.797 26L545.302 48.5L560.306 68.5L572.81 84.75L589.064 106L609.07 132.25L627.825 157.25L645.33 179.75L656.584 194.75L696.595 247.25L697.845 254.75L687.843 286L679.09 323.5L674.089 361L672.838 382.25V403.5L676.589 452.25L667.837 461L660.335 471L684.091 459.75L710.349 449.75L736.606 442.25L760.363 437.25L781.619 434.75H825.382L852.889 438.5L880.397 446L900.403 453.5L920.408 463.5L935.413 472.25L939.164 484.75V514.75L935.413 529.75L936.663 536L944.165 544.75L952.918 563.5L959.169 586V592.25L950.417 584.75L935.413 573.5L917.908 563.5L897.902 556L877.896 551L857.891 548.5L834.134 547.25L829.133 568.5L821.63 591L810.377 616L795.373 641L780.369 662.25H777.868L774.117 669.75H771.616L769.116 674.75L754.111 691L744.108 701L734.106 709.75L720.352 721L697.845 738.5L675.339 754.75L620.323 791L594.066 808.5L566.558 827.25L542.801 844.75L529.047 856L517.794 866H515.294V827.25L519.045 796L527.797 753.5L539.05 711L557.806 654.75L540.301 666L522.796 673.5L505.291 678.5L485.285 679.75L487.786 674.75L497.789 659.75L515.294 634.75L522.796 623.5L509.042 634.75L487.786 649.75L465.279 662.25L444.023 672.25L420.267 679.75L394.009 683.5H381.506L369.002 682.25L366.501 681L369.002 676L409.013 636L417.766 626L434.021 609.75L416.516 619.75L386.507 636L357.749 648.5L333.992 657.25L305.234 664.75L283.978 668.5L270.224 669.75H245.217L218.96 666L198.954 659.75L205.206 653.5L268.974 608.5L293.981 591L315.237 576L323.989 569.75L282.728 582.25L245.217 591L211.457 596L197.703 597.25H150.19L122.682 593.5L97.6751 587.25L78.9198 579.75L57.6638 568.5L56.4134 564.75L238.965 487.25L260.221 478.5L221.46 481H168.945L140.187 478.5L110.179 473.5L81.4205 466L50.1616 453.5L26.4049 439.75L8.89994 426L0.147461 417.25L1.39782 414.75L197.703 378.5L198.954 377.25L160.193 369.75L125.183 359.75L93.9241 347.25L70.1673 334.75L55.1631 324.75L42.6595 314.75L30.156 303.5L18.9028 291L11.4007 279.75V278.5H225.211L200.204 269.75L175.197 258.5L148.94 244.75L130.184 232.25L117.681 222.25L105.177 211L93.9241 199.75L80.1702 181L68.917 159.75L73.9184 158.5L375.254 218.5L390.258 221L379.005 208.5L365.251 189.75L353.998 171L343.995 148.5L337.743 122.25V111L343.995 113.5L380.255 134.75L415.265 156L455.277 179.75L470.281 188.5L455.277 169.75L439.022 144.75L425.268 118.5L417.766 98.5L412.764 77.25L411.514 67.25V43.5L412.764 37.25L422.767 44.75L432.77 54.75L442.773 63.5L457.777 77.25L467.78 86L482.784 99.75L492.787 108.5L507.791 122.25L517.794 131L532.799 144.75L531.548 139.75L519.045 116L509.042 89.75L502.79 67.25L500.289 51V22.25L505.291 -0.25Z" fill="#04695C"/>
<path d="M505.291 -0.25L509.042 1L527.797 26L545.302 48.5L560.306 68.5L572.81 84.75L589.064 106L609.07 132.25L627.825 157.25L645.33 179.75L656.584 194.75L696.595 247.25L697.845 254.75L687.842 286L679.09 323.5L674.089 361L672.838 382.25V403.5L676.589 452.25L667.837 461L659.084 473.5H656.584V476L661.585 478.5L685.342 493.5L695.345 499.75L689.093 507.25L674.089 518.5L669.087 521L667.837 524.75L661.585 522.25L644.08 512.25L621.574 496L605.319 482.25L599.067 477.25L571.56 449.75L562.807 439.75L550.303 424.75L545.302 426V428.5L521.545 443.5L507.791 453.5H505.291L504.04 456L490.286 437.25L480.284 419.75L470.281 403.5L455.277 374.75L444.023 351L431.52 318.5L427.769 306L406.513 298.5L380.255 287.25L347.746 271L322.739 256L296.482 238.5L273.975 222.25L256.47 208.5L240.216 194.75L238.965 192.25L255.22 194.75L387.757 221L389.008 219.75L374.003 202.25L358.999 179.75L348.996 161L341.494 139.75L337.743 122.25V111L343.995 113.5L380.255 134.75L415.265 156L455.277 179.75L470.281 188.5L455.277 169.75L439.022 144.75L425.268 118.5L417.766 98.5L412.764 77.25L411.514 67.25V43.5L412.764 37.25L422.767 44.75L432.77 54.75L442.773 63.5L457.777 77.25L467.78 86L482.784 99.75L492.787 108.5L507.791 122.25L517.794 131L532.799 144.75L531.548 139.75L519.045 116L509.042 89.75L502.79 67.25L500.289 51V22.25L505.291 -0.25Z" fill="#018A7F"/>
<path d="M781.619 434.75H825.382L852.889 438.5L880.397 446L900.403 453.5L920.408 463.5L935.413 472.25L939.164 484.75V514.75L935.413 529.75L936.663 536L944.165 544.75L952.918 563.5L959.169 586V592.25L950.417 584.75L935.413 573.5L917.908 563.5L897.902 556L877.896 551L857.891 548.5L834.134 547.25L829.133 568.5L821.63 591L810.377 616L795.373 641L780.369 662.25H777.868L774.117 669.75H771.616L769.116 674.75L754.111 691L744.108 701L734.106 709.75L720.352 721L697.845 738.5L675.339 754.75L620.323 791L594.066 808.5L566.558 827.25L542.801 844.75L529.047 856L517.794 866H515.294V827.25L519.045 796L527.797 753.5L539.05 711L554.055 666L560.306 651L574.06 641L584.063 631L594.066 622.25L606.569 608.5L622.824 587.25L630.326 576L624.074 571L606.569 559.75L582.813 542.25L566.558 527.25L551.554 513.5L549.053 509.75L567.808 496L581.562 487.25L595.316 477.25H600.318L617.823 492.25L640.329 508.5L665.336 523.5H667.837L674.089 517.25L690.343 504.75L694.094 499.75L669.087 484.75L656.584 476V473.5L675.339 463.5L706.598 451L731.605 443.5L760.363 437.25L781.619 434.75Z" fill="#023781"/>
<path d="M474.032 414.75L479.033 416L490.286 434.75L504.04 454.75L525.296 439.75L542.801 428.5H545.302V426L550.304 423.5L561.557 436L570.309 446L581.562 458.5L599.067 476L581.562 488.5L559.056 503.5L550.304 509.75L557.806 518.5L574.06 533.5L589.065 546L611.571 562.25L631.577 574.75L625.325 586L609.07 606L597.817 619.75L586.564 631L576.561 639.75L562.807 651H560.306V653.5L537.8 667.25L519.045 674.75L505.291 678.5L485.285 679.75L487.786 674.75L497.789 659.75L515.294 634.75L522.796 623.5L509.042 634.75L487.786 649.75L465.279 662.25L444.023 672.25L420.267 679.75L394.009 683.5H381.506L369.002 682.25L366.501 681L369.002 676L409.013 636L417.766 626L434.021 609.75L416.516 619.75L386.507 636L357.749 648.5L333.992 657.25L305.234 664.75L283.978 668.5L270.224 669.75H245.217L218.96 666L198.954 659.75L205.206 653.5L268.974 608.5L293.981 591L315.237 576L332.742 564.75L348.996 558.5H351.497L345.245 546L325.24 511L312.736 513.5L305.234 516L298.982 514.75L282.728 486L277.726 476L282.728 473.5L333.992 463.5L372.753 453.5L404.012 443.5L435.271 432.25L469.03 417.25L474.032 414.75Z" fill="#018A7F"/>
<path d="M197.703 378.5H217.709L248.968 381L317.738 382.25V383.5H306.484L307.735 387.25V409.75L308.985 416V419.75L356.499 413.5L400.261 404.75L437.772 394.75L460.278 387.25H462.779L476.533 412.25L477.783 414.75L441.523 431L407.763 443.5L376.504 453.5L338.994 463.5L296.482 472.25L278.977 476L286.479 489.75L300.233 514.75L308.985 513.5L321.489 509.75L326.49 511L338.994 533.5L348.996 551L351.497 554.75V558.5L330.241 567.25L320.238 571L282.728 582.25L245.217 591L211.457 596L197.703 597.25H150.19L122.682 593.5L97.6751 587.25L78.9198 579.75L57.6638 568.5L56.4134 564.75L238.965 487.25L260.221 478.5L221.46 481H168.945L140.187 478.5L110.179 473.5L81.4205 466L50.1616 453.5L26.4049 439.75L8.89994 426L0.147461 417.25L1.39782 414.75L197.703 378.5Z" fill="#1B8169"/>
<path d="M505.291 -0.25L509.042 1L527.797 26L545.302 48.5L560.306 68.5L585.313 101L592.816 143.5L601.568 178.5L615.322 218.5L627.826 246L636.578 261L634.077 269.75L627.826 284.75L621.574 303.5L617.823 304.75L594.066 292.25L564.057 273.5L560.306 271V268.5L555.305 266L537.8 253.5L525.296 242.25L511.543 231L471.531 191L461.528 177.25L450.275 162.25L435.271 138.5L422.767 112.25L416.516 93.5L412.765 77.25L411.514 67.25V43.5L412.765 37.25L422.767 44.75L432.77 54.75L442.773 63.5L457.777 77.25L467.78 86L482.784 99.75L492.787 108.5L507.791 122.25L517.794 131L532.799 144.75L531.548 139.75L519.045 116L509.042 89.75L502.79 67.25L500.289 51V22.25L505.291 -0.25Z" fill="#04695C"/>
<path d="M238.965 192.25L255.22 194.75L387.757 221L479.033 239.75L485.285 252.25L496.538 278.5L509.042 302.25L516.544 317.25L531.548 342.25L549.053 367.25L565.308 388.5L579.062 404.75L590.315 417.25L615.322 442.25L621.574 446L635.328 458.5L644.08 464.75L641.579 471L627.826 481L616.572 489.75L610.321 487.25L599.067 477.25L571.56 449.75L562.807 439.75L550.304 424.75L545.302 426V428.5L521.545 443.5L507.791 453.5H505.291L504.04 456L490.286 437.25L480.284 419.75L470.281 403.5L455.277 374.75L444.023 351L431.52 318.5L427.769 306L406.513 298.5L380.255 287.25L347.746 271L322.739 256L296.482 238.5L273.975 222.25L256.47 208.5L240.216 194.75L238.965 192.25Z" fill="#45E9DE"/>
<path d="M522.796 772.25L524.046 776L519.045 804.75L516.544 827.25L515.294 866L529.047 854.75L544.052 842.25L566.558 826L586.564 812.25L612.821 794.75L617.823 797.25L630.326 826L637.828 849.75L642.83 876V904.75L637.828 926L632.827 934.75L629.076 931L625.325 923.5L620.323 952.25L614.072 971L606.569 984.75L597.817 996L595.316 993.5L581.562 941L574.06 966L562.807 989.75L554.055 1002.25L542.801 1014.75L532.798 1023.5H531.548L530.298 1006V948.5H527.797L525.296 954.75L515.294 969.75L501.54 984.75L492.787 993.5L475.282 1004.75L469.03 1007.25L465.279 1006L485.285 919.75L460.278 938.5L440.272 948.5L421.517 953.5H419.016L421.517 947.25L437.772 918.5L457.777 884.75L477.783 849.75L497.789 816L516.544 783.5L522.796 772.25Z" fill="#E483B9"/>
<path d="M781.619 434.75H825.381L852.889 438.5L880.397 446L900.403 453.5L920.408 463.5L935.413 472.25L939.164 484.75V514.75L935.413 529.75L936.663 536L944.165 544.75L952.918 563.5L959.169 586V592.25L950.417 584.75L935.413 573.5L917.908 563.5L897.902 556L877.896 551L857.891 548.5L834.134 547.25L832.884 549.75L821.63 547.25L789.121 539.75L751.611 527.25L722.852 514.75L697.845 502.25L669.087 484.75L656.584 476V473.5L675.339 463.5L706.598 451L731.605 443.5L760.363 437.25L781.619 434.75Z" fill="#512F9E"/>
<path d="M596.567 476L601.568 478.5L617.823 492.25L640.329 508.5L665.336 523.5H667.837L674.089 517.25L690.343 504.75L695.345 499.75L715.35 509.75L739.107 521L769.115 532.25L799.124 541L830.383 547.25L832.884 548.5L831.633 559.75L824.131 584.75L811.628 613.5L809.127 617.25H780.369L756.612 616L726.603 611L700.346 604.75L667.837 593.5L631.576 576L606.569 559.75L582.813 542.25L566.558 527.25L551.554 513.5L549.053 509.75L567.808 496L581.562 487.25L595.316 477.25L596.567 476Z" fill="#01478E"/>
<path d="M474.032 414.75L479.033 416L490.286 434.75L504.04 454.75L525.296 439.75L542.801 428.5H545.302V426L550.303 423.5L561.557 436L570.309 446L581.562 458.5L599.067 476L581.562 488.5L559.056 503.5L550.303 509.75L545.302 507.25L531.548 492.25L521.545 479.75L512.793 468.5L501.54 476L479.033 492.25L449.025 511L421.517 526L392.759 541L361.5 554.75L355.248 557.25H351.497L341.494 541L336.493 531L325.24 511L312.736 513.5L305.234 516L298.982 514.75L282.728 486L277.726 476L282.728 473.5L333.992 463.5L372.753 453.5L404.012 443.5L435.271 432.25L469.03 417.25L474.032 414.75Z" fill="#018A80"/>
<path d="M150.19 387.25L161.443 388.5V391H163.944L165.194 426H220.21L273.975 423.5L288.979 422.25H305.234V437.25L302.733 457.25L300.233 462.25L272.725 474.75L262.722 478.5L240.216 479.75L221.46 481H168.945L140.187 478.5L110.179 473.5L81.4205 466L50.1616 453.5L26.4049 439.75L8.89994 426L0.147461 417.25L1.39782 414.75L150.19 387.25Z" fill="#56B16F"/>
<path d="M746.609 616H780.369L807.877 617.25L805.376 624.75L790.372 648.5L780.369 662.25H777.868L774.117 669.75H771.616L769.116 674.75L754.111 691L744.109 701L734.106 709.75L725.353 716H711.599L690.343 714.75H647.831L626.575 712.25L606.57 713.5L597.817 712.25L561.557 709.75L549.053 708.5L546.552 706L557.806 691L576.561 672.25L594.066 659.75L611.571 649.75L632.827 639.75L662.835 629.75L695.345 622.25L731.605 617.25L746.609 616Z" fill="#512F9E"/>
<path d="M585.313 103.5L591.565 109.75L609.07 132.25L627.825 157.25L645.33 179.75L656.584 194.75L696.595 247.25L697.845 254.75L687.842 286L679.09 323.5L674.089 361L672.838 382.25V403.5L676.589 452.25L666.586 462.25H651.582L649.081 459.75L646.581 433.5V389.75L642.83 391L612.821 387.25L604.069 384.75L606.569 364.75L612.821 331L622.824 296L631.576 271L635.328 263.5L632.827 256L629.076 249.75L619.073 229.75L609.07 204.75L599.067 173.5L590.315 137.25L585.313 108.5V103.5Z" fill="#45E9DE"/>
<path d="M567.808 528.5L576.561 536L597.817 552.25L617.823 566L631.577 574.75L625.325 586L609.07 606L597.817 619.75L586.564 631L576.561 639.75L562.807 651H560.306V653.5L537.8 667.25L519.045 674.75L505.291 678.5L485.285 679.75L487.786 674.75L497.789 659.75L515.294 634.75L522.796 623.5L509.042 634.75L487.786 649.75L465.279 662.25L444.023 672.25L420.267 679.75L394.009 683.5H381.506L369.002 682.25L366.501 681L369.002 676L409.013 636L417.766 626L426.518 617.25H432.77L445.274 628.5L446.524 631L459.028 626V623.5L479.033 609.75L496.538 596L512.793 582.25L525.296 571L535.299 562.25L560.306 537.25L567.808 528.5Z" fill="#04695C"/>
<path d="M11.4007 278.5L18.9028 281L50.1617 293.5L72.6681 301L101.426 309.75L135.186 318.5L163.944 323.5L212.708 331L257.721 334.75H312.736L351.497 332.25L365.251 331L364.001 348.5L358.999 378.5L351.497 381L337.743 382.25H248.968L203.955 378.5L160.193 369.75L125.183 359.75L93.9241 347.25L70.1674 334.75L55.1631 324.75L42.6596 314.75L30.156 303.5L18.9028 291L11.4007 279.75V278.5Z" fill="#55B170"/>
<path d="M68.917 158.5L80.1702 159.75L236.464 191L250.218 202.25L270.224 218.5L292.73 234.75L296.482 237.25L293.981 243.5L287.729 253.5L281.477 264.75L268.974 284.75L266.473 288.5L255.22 287.25L236.464 282.25L185.2 281V279.75L225.211 278.5L200.204 269.75L175.197 258.5L148.94 244.75L130.184 232.25L117.681 222.25L105.177 211L93.9241 199.75L80.1702 181L68.917 159.75V158.5Z" fill="#98D164"/>
<path d="M471.531 292.25H475.282L489.036 322.25L506.541 356L512.793 366L524.046 358.5L530.298 351L535.299 347.25L549.053 367.25L565.308 388.5L579.062 404.75L590.315 417.25L615.322 442.25L621.574 446L635.328 458.5L644.08 464.75L641.579 471L627.825 481L616.572 489.75L610.32 487.25L599.067 477.25L571.559 449.75L562.807 439.75L550.303 424.75L545.302 426V428.5L521.545 443.5L507.791 453.5H505.291L504.04 456L490.286 437.25L480.284 419.75L470.281 403.5L455.276 374.75L444.023 351L432.77 322.25L434.02 317.25L452.776 304.75L471.531 292.25Z" fill="#31B1BF"/>
<path d="M529.047 893.5L535.299 896L549.053 909.75L559.056 918.5L575.311 933.5L579.062 936L576.561 922.25L575.311 916V907.25L592.816 913.5L616.572 923.5L622.824 926L624.074 931L620.323 952.25L614.072 971L606.569 984.75L597.817 996L595.316 993.5L581.562 941L574.06 966L562.807 989.75L554.055 1002.25L542.801 1014.75L532.799 1023.5H531.548L530.298 1006V948.5H527.797L525.296 954.75L515.294 969.75L501.54 984.75L492.787 993.5L475.282 1004.75L469.03 1007.25L465.279 1006L486.535 913.5L489.036 906L495.288 907.25L516.544 922.25L525.296 928.5L529.047 929.75V893.5Z" fill="#FB9B7C"/>
<path d="M796.623 388.5L820.38 389.75L845.387 394.75L871.645 404.75L889.15 414.75L905.404 427.25L919.158 441L930.411 458.5L935.413 469.75L934.162 472.25L909.155 458.5L884.148 448.5L857.891 441L837.885 437.25L825.382 436H781.619L752.861 439.75L717.851 448.5L692.844 457.25L665.336 469.75L659.084 472.25L664.086 464.75L675.339 452.25L684.091 442.25L694.094 432.25L711.599 418.5L730.355 406L749.11 397.25L770.366 391L796.623 388.5Z" fill="#E483B9"/>
<path d="M307.735 581L310.235 582.25V586L315.237 591L330.241 611L333.992 614.75L357.749 603.5L364.001 604.75L375.254 618.5L385.257 632.25L386.507 636L357.749 648.5L333.992 657.25L305.234 664.75L283.978 668.5L270.224 669.75H245.217L218.96 666L198.954 659.75L205.206 653.5L268.974 608.5L293.981 591L307.735 581Z" fill="#1C977A"/>
<path d="M412.765 37.25L415.265 41L425.268 61L435.271 79.75L462.779 121L466.53 124.75V128.5H469.03L470.281 133.5H472.782L477.783 141L484.035 148.5V151H486.535L497.789 164.75L511.543 179.75L539.05 207.25L552.804 218.5L570.309 232.25L587.814 244.75L585.313 249.75L567.808 263.5L564.057 267.25H561.557L560.306 269.75L542.801 257.25L529.047 246L515.294 233.5L505.291 224.75L471.531 191L461.528 177.25L450.275 162.25L435.271 138.5L422.767 112.25L416.516 93.5L412.765 77.25L411.514 67.25V43.5L412.765 37.25Z" fill="#54B070"/>
<path d="M505.291 -0.25L509.042 1L527.797 26L545.302 48.5L560.306 68.5L585.313 101L592.816 143.5L595.316 153.5L594.066 159.75L585.313 162.25L556.555 171L552.804 172.25L544.052 161L536.55 149.75L524.046 126L515.294 107.25L505.291 77.25L501.54 59.75L500.289 51V22.25L505.291 -0.25Z" fill="#98D164"/>
<path d="M631.577 271L636.578 272.25L665.336 276L669.087 277.25L666.586 289.75L657.834 322.25L654.083 339.75H675.339L672.838 382.25V403.5L676.589 452.25L666.586 462.25H651.582L649.081 459.75L646.581 433.5V389.75L642.83 391L612.821 387.25L604.069 384.75L606.569 364.75L612.821 331L622.824 296L631.577 271Z" fill="#2EA9B8"/>
<path d="M511.542 467.25L521.545 477.25L520.295 482.25L497.789 504.75L487.786 513.5L475.282 524.75L461.528 536L439.022 553.5L417.766 568.5L392.759 584.75L369.002 598.5L340.244 613.5L332.742 616L320.238 599.75L312.736 589.75V587.25L307.735 584.75L311.486 578.5L330.241 566L376.504 547.25L417.766 527.25L446.524 511L471.531 496L496.538 478.5L511.542 467.25Z" fill="#04695C"/>
<path d="M162.694 519.75L166.445 521L176.447 541L178.948 547.25L188.951 544.75H198.954L201.455 552.25L216.459 577.25L222.711 588.5L221.46 594.75L197.704 597.25H150.19L122.682 593.5L97.6752 587.25L78.9198 579.75L57.6638 568.5L56.4135 564.75L112.679 541L162.694 519.75Z" fill="#68BB6C"/>
<path d="M13.9014 278.5H140.187L220.21 281L230.213 282.25L232.713 292.25L236.464 311L238.965 318.5V328.5L237.715 333.5H225.211L186.45 328.5L145.189 321L125.183 317.25L85.1716 306L53.9127 296L27.6553 286L13.9014 279.75V278.5Z" fill="#3C915F"/>
<path d="M474.032 414.75L479.033 416L487.786 429.75L486.535 434.75L470.281 444.75L447.774 457.25L421.517 471L385.257 487.25L342.745 503.5L305.234 516L298.982 514.75L282.728 486L277.726 476L282.728 473.5L333.992 463.5L372.753 453.5L404.012 443.5L435.271 432.25L469.03 417.25L474.032 414.75Z" fill="#04695C"/>
<path d="M337.743 111L343.995 113.5L380.255 134.75L415.265 156L444.023 173.5L441.523 181L429.019 197.25V201L437.772 209.75L451.525 221L465.279 233.5L471.531 238.5L455.276 236L392.759 223.5L379.005 208.5L365.251 189.75L353.998 171L343.995 148.5L337.743 122.25V111Z" fill="#56B16F"/>
<path d="M11.4007 278.5L18.9028 281L50.1617 293.5L72.6681 301L101.426 309.75L135.186 318.5L163.944 323.5L177.698 326L182.699 328.5L180.199 348.5L176.447 368.5L170.196 371L155.191 368.5L121.432 358.5L91.4234 346L70.1674 334.75L55.1631 324.75L42.6596 314.75L30.156 303.5L18.9028 291L11.4007 279.75V278.5Z" fill="#97D065"/>
<path d="M491.537 599.75L496.538 602.25L519.045 617.25L522.796 623.5L509.042 634.75L487.786 649.75L465.279 662.25L444.023 672.25L420.267 679.75L394.009 683.5H381.506L369.002 682.25L366.501 681L369.002 676L409.013 636L417.766 626L426.518 617.25H432.77L445.274 628.5L446.524 631L459.028 626V623.5L479.033 609.75L491.537 599.75Z" fill="#1C977A"/>
<path d="M48.9113 406H55.1631L57.6638 408.5L58.9141 421L62.6652 422.25L150.19 427.25L147.689 452.25L145.189 472.25H142.688L141.438 476L138.937 477.25L122.682 476L90.173 468.5L67.6666 461L45.1602 451L22.6538 437.25L6.39923 423.5L0.147461 416L7.64959 413.5L48.9113 406Z" fill="#98D164"/>
<path d="M68.917 158.5L80.1702 159.75L192.702 182.25V186L178.948 211L158.943 243.5L157.692 247.25L151.44 246L131.435 233.5L117.681 222.25L105.177 211L93.9241 199.75L80.1702 181L68.917 159.75V158.5Z" fill="#CAE85A"/>
<path d="M286.479 521L290.23 522.25L306.484 551L313.986 563.5L316.487 572.25L277.726 583.5L245.217 591L230.213 593.5H222.711L218.96 583.5L208.957 566L202.705 556L198.954 551V544.75L196.453 543.5L246.467 532.25L258.971 528.5L286.479 521Z" fill="#55B16F"/>
<path d="M604.069 384.75L642.83 389.75H646.581L647.831 433.5L650.332 459.75L651.582 461L666.586 462.25L659.084 473.5H656.584V476L661.585 478.5L685.342 493.5L695.345 499.75L689.093 507.25L674.089 518.5L669.087 521L667.837 524.75L661.585 522.25L644.08 512.25L621.574 496L615.322 489.75L635.328 473.5L641.579 471L644.08 464.75L639.079 462.25L622.824 448.5L619.073 444.75L612.821 441L601.568 429.75L602.818 394.75L604.069 384.75Z" fill="#1C85AE"/>
<path d="M288.979 422.25H305.234V437.25L302.733 457.25L300.233 462.25L272.725 474.75L262.722 478.5L240.216 479.75H197.703L202.705 442.25L203.955 427.25L220.21 426L273.975 423.5L288.979 422.25Z" fill="#55B16F"/>
<path d="M447.774 362.25L451.525 363.5L461.528 384.75L460.278 388.5L425.268 399.75L389.008 408.5L348.996 416L318.988 419.75H308.985L306.484 409.75V383.5L362.75 378.5L404.012 372.25L437.772 364.75L447.774 362.25Z" fill="#03695C"/>
<path d="M442.773 174.75L449.025 176L472.781 191L512.793 231L526.547 242.25L529.047 246L527.797 248.5H525.296L522.796 253.5L516.544 259.75L512.793 268.5L532.798 282.25L535.299 283.5V286L527.797 292.25H525.296V294.75L512.793 304.75L509.042 306L499.039 286L487.786 262.25L479.033 241L469.03 237.25L451.525 222.25L432.77 206L426.518 198.5L437.772 184.75L441.523 179.75L442.773 174.75Z" fill="#1B8169"/>
<path d="M460.278 387.25H462.779L476.533 412.25L477.783 414.75L441.523 431L407.763 443.5L376.504 453.5L338.994 463.5L323.989 466L318.988 456L322.739 452.25L357.749 437.25L367.752 432.25L370.252 421V411L405.262 403.5L437.772 394.75L460.278 387.25Z" fill="#018A7F"/>
<path d="M695.345 499.75L715.35 509.75L739.107 521L769.116 532.25L799.124 541L830.383 547.25L832.884 548.5L831.633 559.75L829.133 568.5L827.882 566H802.875L770.366 562.25L736.606 554.75L706.598 544.75L684.091 534.75L666.586 526L669.087 521L690.343 504.75L695.345 499.75Z" fill="#0D609C"/>
<path d="M296.482 238.5L307.735 244.75L328.991 258.5L355.248 273.5L387.757 289.75L416.516 301L424.018 303.5L421.517 306H369.002L351.497 304.75L346.496 303.5L328.991 302.25L275.225 292.25L265.223 289.75L270.224 281L283.978 258.5L291.48 244.75L296.482 238.5Z" fill="#54B070"/>
<path d="M414.015 38.5L424.018 46L432.77 54.75L442.773 63.5L457.777 77.25L467.78 86L482.784 99.75L492.787 108.5L507.791 122.25L517.794 131L532.799 144.75L536.55 149.75L531.548 158.5L526.547 166L519.045 179.75L514.043 183.5L500.289 169.75L489.036 156L486.535 151H484.035L472.781 136V133.5H470.281L469.03 128.5H466.53V124.75L462.779 123.5L439.022 87.25L427.769 68.5L414.015 41V38.5Z" fill="#3D925F"/>
<path d="M549.053 423.5L555.305 428.5L566.558 442.25L584.063 461L599.067 476L581.562 488.5L559.056 503.5L550.304 509.75L545.302 507.25L531.548 492.25L511.543 467.25L504.04 456L509.042 451L542.801 428.5H545.302V426L549.053 423.5Z" fill="#1C86AF"/>
<path d="M549.053 513.5L554.055 514.75L567.808 527.25L565.308 532.25L551.554 547.25L527.797 571L517.794 579.75L501.54 593.5L484.035 607.25L461.528 623.5H459.028V626L449.025 632.25L445.274 631L437.772 622.25L432.77 618.5L427.769 616L439.022 606L444.023 601L464.029 587.25L487.786 569.75L505.291 554.75L519.045 543.5L531.548 531L541.551 522.25L549.053 513.5Z" fill="#04695C"/>
<path d="M197.703 378.5H217.709L248.968 381L250.218 386V413.5L248.968 424.75L243.967 426L220.21 427.25H180.199L165.194 426L163.944 413.5V391H161.443V388.5H157.692V386L197.703 378.5Z" fill="#3C915F"/>
<path d="M427.769 318.5H432.77L446.524 353.5L449.025 358.5L447.774 363.5L410.264 372.25L372.753 378.5L355.248 379.75L358.999 378.5L360.25 363.5L365.251 331L366.501 329.75L411.514 322.25L427.769 318.5Z" fill="#1A967A"/>
<path d="M471.531 292.25H475.282L489.036 322.25L506.541 356L501.54 359.75L464.029 384.75H460.278L450.275 363.5L441.523 344.75L432.77 322.25L434.02 317.25L452.776 304.75L471.531 292.25Z" fill="#34BEC9"/>
<path d="M567.808 528.5L576.561 536L592.815 548.5L590.315 553.5L579.062 567.25L567.808 579.75L554.055 594.75L544.052 604.75L524.046 622.25H521.545L515.294 616L495.288 602.25V597.25L512.793 582.25L525.296 571L535.299 562.25L560.306 537.25L567.808 528.5Z" fill="#018A7F"/>
<path d="M596.567 476L601.568 478.5L617.823 492.25L640.329 508.5L644.08 511L641.579 516L627.825 524.75L614.072 534.75L605.319 539.75L595.316 547.25L592.816 549.75L580.312 539.75L567.808 528.5L551.554 513.5L549.053 509.75L567.808 496L581.562 487.25L595.316 477.25L596.567 476Z" fill="#0D609D"/>
<path d="M256.47 208.5L267.723 216L283.978 228.5L296.482 237.25L293.981 243.5L287.729 253.5L281.477 264.75L268.974 284.75L266.473 288.5L255.22 287.25L236.465 282.25L185.2 281V279.75L225.211 278.5L216.459 274.75L218.96 269.75L221.46 267.25L228.962 256L240.216 237.25L252.719 216L253.97 211L256.47 208.5Z" fill="#78C26B"/>
<path d="M412.765 37.25L415.265 41L425.268 61L435.271 79.75L462.779 121L466.53 124.75V128.5H469.03L470.281 133.5H472.782L477.783 141L485.285 151V153.5L471.531 164.75L462.779 171L457.777 172.25L447.774 158.5L434.021 136L422.767 112.25L416.516 93.5L412.765 77.25L411.514 67.25V43.5L412.765 37.25Z" fill="#97D065"/>
<path d="M337.743 111L343.995 113.5L374.003 131L372.753 137.25L369.002 143.5L387.757 162.25L396.51 172.25L406.513 181L417.766 192.25L411.514 198.5L409.013 199.75L402.762 206L392.759 214.75L385.257 216L371.503 198.5L358.999 179.75L348.996 161L341.494 139.75L337.743 122.25V111Z" fill="#98D164"/>
<path d="M505.291 -0.25L509.042 1L527.797 26L545.302 48.5L560.306 68.5L565.308 76L520.295 91L510.292 93.5L502.79 67.25L500.289 51V22.25L505.291 -0.25Z" fill="#CAE85A"/>
<path d="M220.21 281H236.465L281.477 292.25L301.483 296L302.733 323.5L301.483 333.5L312.736 334.75V336H257.721L238.965 334.75L237.715 328.5V318.5L232.713 301L230.213 282.25H220.21V281Z" fill="#257E5C"/>
<path d="M652.833 337.25L654.083 339.75H675.339L672.838 382.25V403.5L676.589 452.25L666.586 462.25H651.582L649.082 459.75L646.581 433.5V393.5L649.082 362.25L652.833 337.25Z" fill="#35BFCA"/>
<path d="M178.948 327.25L193.952 328.5L238.965 333.5L246.467 336L243.967 353.5L240.216 373.5L238.965 379.75H217.709L198.954 377.25L171.446 372.25L170.196 369.75L176.448 364.75L180.199 343.5L181.449 331L182.699 328.5L178.948 327.25Z" fill="#67BA6D"/>
<path d="M600.318 564.75H601.568L600.318 577.25L587.814 618.5L586.564 631L576.561 639.75L562.807 651H560.306V653.5L537.8 667.25L519.045 674.75L505.291 678.5L485.285 679.75L486.535 677.25L500.289 668.5L520.295 652.25L534.049 641L542.801 632.25H545.302L547.803 627.25L569.059 606L576.561 596L591.565 577.25L600.318 564.75Z" fill="#1A967A"/>
<path d="M150.19 427.25H203.955V442.25L198.954 478.5L221.46 479.75V481H168.945L140.187 478.5L138.937 476L142.688 472.25H145.189L146.439 452.25L150.19 427.25Z" fill="#69BB6C"/>
<path d="M527.797 246L532.799 248.5L552.804 263.5L560.306 268.5V271L566.558 273.5L590.315 288.5L612.821 301L620.323 304.75L617.823 317.25L615.322 326L604.069 322.25L570.309 306L546.552 292.25L529.047 281L511.542 268.5L516.544 258.5L525.296 248.5H527.797V246Z" fill="#04695C"/>
<path d="M535.299 284.75L549.053 292.25L575.311 307.25L604.069 321L614.072 326L612.821 336L610.32 349.75L609.07 347.25L599.067 346L565.308 334.75L527.797 318.5L515.294 312.25L512.793 313.5L510.292 308.5V304.75L520.295 297.25L525.296 294.75V292.25L535.299 284.75Z" fill="#018A7F"/>
<path d="M13.9014 278.5H140.187V279.75L133.935 281L135.186 284.75L136.436 298.5V309.75L140.187 311L137.686 318.5L140.187 319.75L130.184 318.5L101.426 311L65.1659 299.75L40.1588 291L13.9014 279.75V278.5Z" fill="#55B16F"/>
<path d="M140.187 554.75H146.439L156.442 572.25L167.695 591L168.945 596L166.445 597.25H150.19L122.682 593.5L97.6752 587.25L78.9198 579.75L57.6638 568.5L56.4135 564.75L68.917 559.75L72.6681 561V563.5L132.685 556L140.187 554.75Z" fill="#98D164"/>
<path d="M589.065 417.25L597.817 424.75L615.322 442.25L621.574 446L635.328 458.5L644.08 464.75L641.579 471L627.826 481L616.572 489.75L610.321 487.25L599.067 477.25L571.56 449.75L562.807 439.75L561.557 437.25L567.809 433.5L581.562 422.25L585.313 418.5L589.065 417.25Z" fill="#2EA9B8"/>
<path d="M594.066 158.5L596.567 159.75L605.319 189.75L615.322 218.5L627.825 246L635.328 258.5L634.077 261L621.574 249.75L611.571 241L599.067 229.75L590.315 219.75L576.561 204.75L566.558 192.25L552.804 173.5L556.555 169.75L585.313 161L594.066 158.5Z" fill="#54B070"/>
<path d="M298.982 631H303.984L312.736 642.25L322.739 654.75V658.5L325.24 659.75L298.982 666L283.978 668.5L270.224 669.75H245.217L218.96 666L198.954 659.75V658.5L231.463 652.25L257.721 644.75L298.982 631Z" fill="#56B16F"/>
<path d="M221.46 494.75H223.961V498.5L228.962 501L245.217 531L246.467 533.5L196.453 544.75L178.948 547.25L167.695 526L165.194 519.75L168.945 517.25L206.456 501L221.46 494.75Z" fill="#3D925F"/>
<path d="M248.968 382.25H317.737V383.5H306.484L307.735 387.25V409.75L308.985 416V419.75L312.736 421L273.975 424.75L243.967 426L248.968 424.75V382.25Z" fill="#1B8169"/>
<path d="M362.75 331H365.251L364.001 348.5L358.999 378.5L351.497 381L337.743 382.25H308.985V372.25L313.987 341L315.237 336L312.736 334.75L351.497 332.25L362.75 331Z" fill="#37A375"/>
<path d="M364.001 412.25H371.503L370.252 428.5L367.752 433.5L352.747 441L320.238 454.75L323.989 466L316.487 468.5L282.728 474.75H272.725L275.226 472.25L300.233 461L302.733 446L305.234 422.25L301.483 421L356.499 413.5L364.001 412.25Z" fill="#1A967A"/>
<path d="M575.311 907.25L592.816 913.5L616.572 923.5L622.824 926L624.074 931L620.323 952.25L614.072 971L606.569 984.75L597.817 996L595.316 993.5L580.312 934.75L575.311 916V907.25Z" fill="#FECD4C"/>
<path d="M604.069 384.75L642.83 389.75H646.581L647.831 444.75L621.574 442.25L615.322 443.5L601.568 429.75L602.818 394.75L604.069 384.75Z" fill="#1C86AF"/>
<path d="M442.773 174.75L449.025 176L472.781 191L497.789 216L490.286 224.75L477.783 238.5L474.032 239.75L462.779 232.25L449.025 219.75L435.271 208.5L426.518 199.75L434.02 188.5L441.523 179.75L442.773 174.75Z" fill="#3C915F"/>
<path d="M286.479 521L290.23 522.25L306.484 551L313.986 563.5L316.487 572.25L282.728 582.25H276.476L275.225 574.75L250.218 532.25L255.22 529.75L286.479 521Z" fill="#38A475"/>
<path d="M48.9113 406H55.1631L57.6638 408.5L58.9141 421L73.9184 423.5V437.25L70.1673 459.75L67.6666 461L45.1602 451L22.6538 437.25L6.39923 423.5L0.147461 416L7.64959 413.5L48.9113 406Z" fill="#B4DE5E"/>
<path d="M587.814 244.75L601.568 253.5L627.826 268.5L631.577 271L630.326 277.25L621.574 303.5L617.823 304.75L594.066 292.25L564.057 273.5L560.306 269.75L566.558 263.5L582.813 249.75H585.313L587.814 244.75Z" fill="#1A967A"/>
<path d="M631.577 271L636.578 272.25L665.336 276L669.087 277.25L666.586 289.75L657.834 322.25L655.333 334.75L654.083 329.75L639.079 328.5L619.073 326L616.572 324.75L617.823 313.5L625.325 288.5L631.577 271Z" fill="#34BEC9"/>
<path d="M321.489 509.75L326.49 511L338.994 533.5L348.996 551L351.497 554.75V558.5L330.241 567.25L320.238 571H313.986L312.736 563.5L302.733 546L288.979 522.25L290.23 519.75L321.489 509.75Z" fill="#1B977A"/>
<path d="M11.4007 278.5L18.9028 281L50.1617 293.5L95.1744 308.5L96.4248 312.25L93.9241 323.5L91.4234 344.75L83.9213 342.25L63.9156 331L43.9099 316L28.9057 302.25L15.1518 286L11.4007 278.5Z" fill="#B3DD5E"/>
<path d="M288.979 422.25H305.234V437.25L302.733 457.25L300.233 462.25L272.725 474.75L265.223 477.25L256.47 476L261.472 437.25V427.25L255.22 426V424.75L288.979 422.25Z" fill="#38A476"/>
<path d="M162.694 519.75L166.445 521L180.199 548.5L143.938 554.75L123.933 558.5L83.9212 563.5H72.668L71.4177 558.5L138.937 529.75L162.694 519.75Z" fill="#56B16F"/>
<path d="M631.577 859.75H639.079L641.579 867.25L642.83 876V904.75L637.828 926L632.827 934.75L629.076 931L619.073 912.25L606.569 886L597.817 869.75V864.75L631.577 859.75Z" fill="#FECD4C"/>
<path d="M338.994 266L346.496 268.5L370.252 281L394.009 292.25L420.267 302.25L424.018 304.75L421.517 306H369.002L351.497 304.75L346.496 303.5L328.991 302.25L321.489 299.75L323.989 292.25L337.743 268.5L338.994 266Z" fill="#37A376"/>
<path d="M434.02 641L439.022 642.25L451.525 651L461.528 658.5L462.779 663.5L444.023 672.25L420.267 679.75L394.009 683.5H381.506L369.002 682.25L366.501 681L369.002 676L392.759 652.25V656L372.753 676L392.759 666L422.767 648.5L434.02 641Z" fill="#56B16F"/>
<path d="M514.043 311L539.05 322.25L569.059 334.75L602.818 346L609.07 347.25V357.25L607.82 364.75L594.066 363.5L560.306 356L535.299 348.5L526.547 336L514.043 314.75V311Z" fill="#04695C"/>
<path d="M585.313 122.25L589.064 123.5L595.316 153.5L594.066 159.75L585.313 162.25L556.555 171L552.804 172.25L544.052 161L536.55 149.75L532.798 142.25L534.049 137.25L542.801 136L585.313 122.25Z" fill="#79C26B"/>
<path d="M277.726 602.25L280.227 603.5L278.977 607.25L286.479 618.5L290.23 619.75L297.732 632.25L277.726 639.75L241.466 651L207.706 658.5H200.204L206.456 652.25L226.462 638.5L268.974 608.5L277.726 602.25Z" fill="#3D925F"/>
<path d="M165.194 177.25L192.702 182.25V186L178.948 211L158.942 243.5L157.692 247.25L151.44 246L133.935 234.75L136.436 228.5L153.941 198.5L162.694 184.75L165.194 177.25Z" fill="#B4DE5E"/>
<path d="M530.298 941L536.55 943.5L547.803 954.75L557.806 963.5L569.059 973.5L567.808 979.75L556.555 999.75L541.551 1016L531.548 1023.5L530.298 1006V941Z" fill="#FECE4C"/>
<path d="M535.299 149.75L540.301 152.25L551.554 169.75L569.059 193.5L561.557 204.75L551.554 217.25L546.552 214.75L527.797 197.25L515.294 184.75L517.794 179.75L525.296 166L534.049 153.5L535.299 149.75Z" fill="#257E5C"/>
<path d="M485.285 151L491.537 157.25L506.541 174.75L517.794 186L515.294 191L509.042 196H506.541L504.04 201L497.789 206H495.288V208.5L490.286 209.75L471.531 191L461.528 177.25L459.028 174.75L460.278 169.75L466.53 167.25L480.284 156L485.285 153.5V151Z" fill="#67BA6D"/>
<path d="M275.225 223.5L280.227 226L296.481 237.25L293.981 243.5L287.729 253.5L281.477 264.75L268.974 284.75L266.473 288.5L255.22 287.25L241.466 283.5L246.467 271L262.722 243.5L275.225 223.5Z" fill="#67BA6D"/>
<path d="M414.015 38.5L424.018 46L432.77 54.75L442.773 63.5L457.777 77.25L467.78 86L482.784 99.75L474.032 113.5L465.279 124.75L460.278 119.75L439.022 87.25L427.769 68.5L414.015 41V38.5Z" fill="#56B16F"/>
<path d="M417.766 192.25L427.769 199.75L437.772 209.75L451.525 221L465.279 233.5L471.531 238.5L455.277 236L392.759 223.5L386.507 217.25L387.757 214.75L396.51 211L410.264 197.25L417.766 192.25Z" fill="#66BA6D"/>
<path d="M307.735 581L310.235 582.25V586L315.237 591L330.241 611L332.742 613.5V617.25L313.986 626L297.732 632.25L290.23 622.25V619.75L285.228 618.5L277.726 607.25L280.227 601L298.982 587.25L307.735 581Z" fill="#1C8169"/>
<path d="M566.558 873.5L584.063 879.75L602.818 887.25L606.569 888.5L607.82 886L620.323 912.25L624.074 918.5V929.75L622.824 926L610.321 922.25L580.312 909.75L576.561 908.5L574.06 911L566.558 879.75V873.5Z" fill="#FB9B7C"/>
<path d="M670.338 403.5H672.838L676.589 452.25L666.586 462.25H651.582L649.082 459.75L646.581 433.5V404.75L670.338 406V403.5Z" fill="#2FAAB9"/>
<path d="M178.948 327.25L193.952 328.5L212.708 331L215.209 333.5L211.457 343.5L207.706 368.5V377.25L203.955 378.5L171.446 372.25L170.196 369.75L176.448 364.75L180.199 343.5L181.449 331L182.699 328.5L178.948 327.25Z" fill="#7AC36A"/>
<path d="M427.769 318.5H432.77L446.524 353.5L449.025 358.5L447.774 363.5L410.264 372.25L407.763 371L410.264 349.75L415.265 322.25L427.769 318.5Z" fill="#0E907D"/>
<path d="M629.076 829.75H631.576L639.079 854.75V859.75L605.319 864.75H597.817L596.567 867.25L582.813 838.5L585.313 836L629.076 829.75Z" fill="#FB9B7C"/>
<path d="M556.555 222.25L566.558 229.75L587.814 244.75L585.313 249.75L567.808 263.5L564.057 267.25H561.557L560.306 269.75L542.801 257.25L530.298 247.25L537.8 238.5L555.305 224.75L556.555 222.25Z" fill="#37A376"/>
<path d="M150.19 427.25H175.197L173.947 452.25L170.196 477.25L166.445 479.75H151.44L140.187 478.5L138.937 476L142.688 472.25H145.189L146.439 452.25L150.19 427.25Z" fill="#7AC36A"/>
<path d="M102.677 396L111.429 397.25L112.679 401L113.93 423.5L118.931 426H105.177L62.6652 423.5L57.6638 421L56.4134 408.5L55.1631 404.75L102.677 396Z" fill="#7BC36A"/>
<path d="M604.069 558.5L610.32 561L631.576 574.75L625.325 586L609.07 606L597.817 619.75L587.814 629.75L585.313 624.75L594.066 593.5L600.318 571L601.568 562.25L604.069 558.5Z" fill="#0E907C"/>
<path d="M337.743 111L343.995 113.5L374.003 131L372.753 137.25L369.002 143.5L376.504 151V153.5L356.498 171H353.998L343.995 148.5L337.743 122.25V111Z" fill="#B3DD5E"/>
<path d="M479.033 951L486.535 954.75L509.042 971L510.292 976L492.787 993.5L475.282 1004.75L469.03 1007.25L465.279 1006L477.783 952.25L479.033 951Z" fill="#FDCE4C"/>
<path d="M446.524 903.5L452.776 906L467.78 919.75L474.032 924.75L472.781 929.75L460.278 938.5L440.272 948.5L421.517 953.5H419.016L421.517 947.25L437.772 918.5L446.524 903.5Z" fill="#FB9B7C"/>
<path d="M165.194 549.75H171.446L185.2 576L193.952 591V594.75L197.703 597.25H166.445L167.695 594.75L160.193 579.75L150.19 563.5L146.439 556L143.938 553.5L165.194 549.75Z" fill="#7AC36A"/>
<path d="M426.518 617.25H432.77L445.274 628.5L447.774 633.5L439.022 639.75L430.27 644.75L407.763 658.5L374.004 677.25L371.503 676L392.759 654.75L396.51 648.5L409.014 636L417.766 626L426.518 617.25Z" fill="#28815D"/>
<path d="M342.745 502.25H346.496L356.498 521L371.503 546L370.252 551L355.248 557.25H351.497L341.494 541L336.493 531L325.24 511V508.5L342.745 502.25Z" fill="#0E907D"/>
<path d="M412.765 37.25L415.265 41L425.268 61L435.271 79.75L445.274 94.75V99.75L427.769 113.5L424.018 114.75L417.766 98.5L412.765 77.25L411.514 67.25V43.5L412.765 37.25Z" fill="#B3DD5E"/>
<path d="M541.551 604.75H545.302L544.052 618.5L542.801 629.75L545.302 632.25L535.299 641L522.796 652.25L501.54 668.5L487.786 678.5V674.75L497.789 659.75L515.294 634.75L522.796 624.75L526.547 618.5L539.05 607.25L541.551 604.75Z" fill="#27805C"/>
<path d="M605.319 193.5L607.82 197.25L617.823 224.75L627.825 246L635.328 258.5L634.077 261L621.574 249.75L611.571 241L599.067 229.75L590.315 219.75L579.062 207.25L582.813 203.5L602.818 196H605.319V193.5Z" fill="#37A376"/>
<path d="M550.304 57.25L556.555 63.5L565.308 74.75L561.557 77.25L520.295 91L510.292 93.5L505.291 77.25L506.541 72.25L532.799 64.75L547.803 59.75H550.304V57.25Z" fill="#B4DE5E"/>
<path d="M482.784 247.25L492.787 254.75L510.292 267.25L524.046 276L535.299 283.5V286L527.797 292.25H525.296V294.75L512.793 304.75L509.042 306L499.039 286L487.786 262.25L482.784 249.75V247.25Z" fill="#1A967A"/>
<path d="M547.803 627.25H550.303L547.803 639.75L541.551 662.25L542.801 664.75L522.796 673.5L505.291 678.5L485.285 679.75L486.535 677.25L500.289 668.5L520.295 652.25L534.049 641L542.801 632.25H545.302L547.803 627.25Z" fill="#55B16F"/>
<path d="M221.46 494.75H223.961V498.5L228.962 501L245.217 531L246.467 533.5L225.211 538.5L218.96 537.25L213.958 528.5L208.957 517.25L205.206 511L206.456 503.5L203.955 502.25L221.46 494.75Z" fill="#3C9260"/>
<path d="M459.028 624.75L472.782 633.5L486.535 643.5L489.036 648.5L470.281 659.75L465.279 662.25L461.528 661L455.277 654.75L440.272 644.75L435.271 639.75L444.023 634.75L459.028 624.75Z" fill="#39A475"/>
<path d="M322.739 621L328.991 622.25L342.745 639.75L348.996 647.25V649.75L351.497 651L328.991 658.5H322.739L318.988 651L307.735 638.5L303.984 633.5V631L301.483 629.75L322.739 621Z" fill="#39A475"/>
<path d="M590.315 137.25H591.565L595.316 153.5L594.066 159.75L585.313 162.25L556.555 171L552.804 172.25L544.052 161L541.551 154.75L579.062 142.25L590.315 139.75V137.25Z" fill="#67BA6D"/>
<path d="M11.4007 278.5L18.9028 281L62.6652 298.5L61.4149 309.75L58.9142 322.25L53.9127 323.5L42.6596 314.75L30.156 303.5L18.9028 291L11.4007 279.75V278.5Z" fill="#C9E85A"/>
<path d="M572.81 601L575.311 602.25L570.309 622.25L564.057 643.5L562.807 651H560.306V653.5L544.052 663.5L540.301 662.25L549.053 631L550.303 624.75L569.059 606L572.81 601Z" fill="#38A475"/>
<path d="M485.285 151L491.537 157.25L500.289 167.25L499.039 172.25L482.784 184.75L475.282 191H471.531L461.528 177.25L459.028 174.75L460.278 169.75L466.53 167.25L480.284 156L485.285 153.5V151Z" fill="#7AC36B"/>
<path d="M620.323 266L627.825 268.5L631.577 271L630.326 277.25L621.574 303.5L617.823 304.75L594.066 292.25L592.816 289.75L599.067 283.5L610.321 273.5L620.323 266Z" fill="#0E907D"/>
<path d="M246.467 648.5L252.719 649.75L262.722 663.5L263.972 667.25L270.224 668.5V669.75H245.217L218.96 666L198.954 659.75V658.5L231.463 652.25L246.467 648.5Z" fill="#7CC46A"/>
<path d="M372.753 132.25L380.255 134.75L411.514 153.5L405.262 164.75L397.76 173.5L389.008 166L377.755 153.5L367.752 143.5L372.753 133.5V132.25Z" fill="#7BC36A"/>
<path d="M417.766 192.25L427.769 199.75L431.52 203.5V207.25L417.766 218.5L411.514 226L399.011 224.75L391.508 222.25L386.507 217.25L387.757 214.75L396.51 211L410.264 197.25L417.766 192.25Z" fill="#79C26B"/>
<path d="M13.9014 278.5H140.187V279.75L66.4163 281L68.917 291V298.5L65.1659 299.75L40.1588 291L13.9014 279.75V278.5Z" fill="#7EC46A"/>
<path d="M118.931 538.5L122.682 539.75L125.183 546L130.184 554.75L132.685 557.25L83.9212 563.5H72.668L71.4177 558.5L118.931 538.5Z" fill="#7BC36A"/>
<path d="M372.753 284.75L380.255 286L409.013 298.5L424.018 303.5L421.517 306H369.002L351.497 304.75V303.5H362.75L365.251 296L372.753 284.75Z" fill="#1B967A"/>
<path d="M392.759 652.25V656L372.753 676L392.759 666L399.011 662.25H404.012V664.75L409.013 666L419.016 673.5L425.268 678.5L406.513 682.25L394.009 683.5H381.506L369.002 682.25L366.501 681L369.002 676L392.759 652.25Z" fill="#69BB6C"/>
<path d="M0.147461 416L27.6553 418.5L43.9099 421L45.1602 422.25L43.9099 438.5L41.4092 446L35.1574 444.75L21.4035 436L7.64959 424.75L0.147461 416Z" fill="#C9E85A"/>
<path d="M535.299 284.75L549.053 292.25V297.25L540.301 306L530.298 314.75L525.296 317.25L515.294 312.25L512.793 313.5L510.292 308.5V304.75L520.295 297.25L525.296 294.75V292.25L535.299 284.75Z" fill="#0F917D"/>
<path d="M614.072 564.75L626.575 571L631.576 576L620.323 592.25L604.069 612.25L600.318 614.75V606L611.571 568.5L614.072 564.75Z" fill="#01897F"/>
<path d="M102.677 396L111.429 397.25L112.679 401L113.93 423.5L118.931 426H105.177L91.4234 423.5L90.173 403.5L88.9227 398.5L102.677 396Z" fill="#69BB6C"/>
<path d="M569.059 393.5L589.065 394.75L602.818 396V428.5L597.817 426L580.312 408.5L569.059 394.75V393.5Z" fill="#03695C"/>
<path d="M357.749 603.5L364.001 604.75L375.254 618.5L385.257 632.25L386.507 636L375.254 641H371.503L367.752 633.5L360.25 624.75L348.996 611L347.746 608.5L357.749 603.5Z" fill="#10917C"/>
<path d="M364.001 412.25H371.503L370.252 428.5L367.752 433.5L352.747 441L343.995 443.5L346.496 417.25L348.996 414.75L364.001 412.25Z" fill="#0F917D"/>
<path d="M491.537 599.75L496.538 602.25L519.045 617.25L522.796 623.5L511.542 632.25L509.042 631L507.791 627.25L501.54 624.75L481.534 611L480.284 608.5L491.537 599.75Z" fill="#10917C"/>
<path d="M495.288 217.25L500.289 218.5L511.543 229.75L505.291 236L497.789 241L494.038 244.75L487.786 249.75L481.534 247.25L479.033 241L475.282 238.5L492.787 221L495.288 217.25Z" fill="#257E5C"/>
<path d="M262.722 382.25H270.224L273.975 384.75L275.225 389.75L272.725 408.5V417.25L271.474 423.5L266.473 422.25L265.223 418.5L258.971 422.25L257.721 418.5L258.971 409.75L257.721 387.25L258.971 383.5L262.722 382.25Z" fill="#257E5C"/>
<path d="M412.765 37.25L415.265 41L431.52 73.5L430.269 78.5L419.016 86H415.265L412.765 77.25L411.514 67.25V43.5L412.765 37.25Z" fill="#C8E75A"/>
<path d="M48.9113 406H55.1631L57.6638 408.5L58.9141 422.25L38.9085 421L5.14889 417.25L1.39783 414.75L48.9113 406Z" fill="#99D164"/>
<path d="M261.472 643.5H268.974L272.725 649.75L278.977 656L285.228 664.75L283.978 668.5H261.472L262.722 666L255.22 654.75L248.968 647.25L261.472 643.5Z" fill="#68BB6C"/>
<path d="M236.465 631L238.965 632.25L237.715 634.75L246.467 648.5L241.466 651L207.706 658.5H200.204L206.456 652.25L226.462 638.5L236.465 631Z" fill="#59B26F"/>
<path d="M621.574 441L646.581 443.5L649.081 451L651.582 471L640.329 463.5L622.824 448.5L617.823 442.25L621.574 441Z" fill="#0D609D"/>
<path d="M65.1659 279.75H81.4205L85.1716 283.5L88.9226 301L87.6723 306L72.668 302.25L67.6666 299.75V291L65.1659 279.75Z" fill="#68BB6C"/>
<path d="M337.743 111L342.745 113.5L350.247 123.5L360.25 134.75L357.749 139.75L348.996 147.25L343.995 146L340.244 134.75L337.743 122.25V111Z" fill="#C9E85A"/>
<path d="M614.072 222.25L619.073 227.25L632.827 254.75L635.328 261L625.325 253.5L610.321 239.75L600.318 231L599.067 228.5L614.072 222.25Z" fill="#1A967A"/>
<path d="M231.463 652.25L236.464 653.5L242.716 663.5V668.5H232.713L210.207 663.5L198.954 659.75V658.5L231.463 652.25Z" fill="#98D164"/>
<path d="M316.487 454.75L320.238 456L323.989 466L316.487 468.5L282.728 474.75H272.725L275.226 472.25L297.732 462.25L313.986 456L316.487 454.75Z" fill="#0E907D"/>
<path d="M414.015 38.5L424.018 46L432.77 54.75L442.773 63.5L444.023 66L437.772 77.25H435.271L434.021 79.75L424.018 61L414.015 41V38.5Z" fill="#7CC46A"/>
<path d="M118.931 538.5L122.682 539.75L125.183 546L130.184 554.75L132.685 557.25L123.933 558.5H108.928L102.677 547.25L106.428 543.5L118.931 538.5Z" fill="#69BB6C"/>
<path d="M396.51 147.25L402.762 148.5L411.514 153.5L405.262 164.75L397.76 173.5L389.008 166L385.257 159.75L391.508 153.5L396.51 147.25Z" fill="#69BB6C"/>
<path d="M396.51 648.5H402.762L407.763 653.5V656L410.264 657.25L374.004 677.25L371.503 676L392.759 654.75L396.51 648.5Z" fill="#3B915F"/>
<path d="M514.043 657.25H516.544V667.25L515.294 676L495.288 679.75H485.285L486.535 677.25L500.289 668.5L514.043 657.25Z" fill="#68BB6C"/>
<path d="M426.518 617.25H432.77L445.274 628.5L447.774 633.5L437.772 639.75L431.52 633.5L424.018 628.5L419.016 627.25L422.767 623.5L426.518 617.25Z" fill="#1B8168"/>
<path d="M482.784 247.25L507.791 266L509.042 268.5L496.538 278.5L492.787 273.5L482.784 249.75V247.25Z" fill="#37A376"/>
<path d="M341.494 113.5L348.996 116L374.004 131L372.753 137.25L366.501 143.5L357.749 133.5L345.245 119.75L341.494 113.5Z" fill="#99D164"/>
<path d="M442.773 66L449.025 68.5L455.277 76L449.025 86L444.023 93.5L439.022 87.25L435.271 81V77.25H437.772L440.272 71L442.773 66Z" fill="#6ABC6C"/>
<path d="M392.759 652.25V656L372.753 676L382.756 671H387.757L394.009 678.5V683.5H381.506L369.002 682.25L366.501 681L369.002 676L392.759 652.25Z" fill="#7CC46A"/>
<path d="M447.774 218.5L456.527 226L469.03 236L471.531 238.5L455.277 236L436.521 232.25L441.523 224.75H444.023L446.524 219.75L447.774 218.5Z" fill="#52AF70"/>
<path d="M594.066 408.5H602.818V428.5L597.817 426L582.813 411V409.75L594.066 408.5Z" fill="#018A7F"/>
<path d="M495.288 217.25L500.289 218.5L501.54 221H499.039L496.538 227.25L487.786 239.75L480.284 243.5L479.033 241L475.282 238.5L492.787 221L495.288 217.25Z" fill="#1B8269"/>
<path d="M206.456 503.5L211.457 509.75L218.96 523.5L222.711 528.5V534.75L218.96 537.25L213.958 528.5L208.957 517.25L205.206 511L206.456 503.5Z" fill="#1B977B"/>
<path d="M56.4135 564.75H73.9184L78.9198 574.75V578.5L71.4177 576L56.4135 567.25V564.75Z" fill="#B4DE5E"/>
<path d="M297.732 462.25L300.233 463.5V471L282.728 474.75H272.725L275.226 472.25L297.732 462.25Z" fill="#1B967A"/>
<path d="M441.523 346L444.023 347.25L449.025 358.5L447.774 363.5L437.772 364.75V356L440.272 347.25L441.523 346Z" fill="#018A7F"/>
<path d="M425.268 939.75L426.518 942.25L432.77 944.75L435.271 949.75L421.517 953.5H419.016L421.517 947.25L425.268 939.75Z" fill="#FACC4F"/>
<path d="M461.528 582.25L469.03 583.5L462.779 589.75L446.524 601L444.023 599.75L461.528 582.25Z" fill="#12927C"/>
<path d="M500.289 668.5H502.79L501.54 677.25L505.291 678.5L485.285 679.75L486.535 677.25L500.289 668.5Z" fill="#7DC46A"/>
<path d="M405.262 297.25L424.018 303.5L421.517 306H402.762L405.262 297.25Z" fill="#0E907D"/>
<path d="M13.9014 278.5H30.156L32.6567 287.25L21.4035 283.5L13.9014 279.75V278.5Z" fill="#98D165"/>
<path d="M620.323 293.5L624.074 294.75L620.323 304.75L612.821 302.25L615.322 297.25L620.323 293.5Z" fill="#018A80"/>
<path d="M392.759 652.25V656L372.753 676V678.5L367.752 679.75L370.252 674.75L392.759 652.25Z" fill="#5DAB64"/>
<path d="M494.038 664.75L499.039 666L500.289 669.75L486.535 678.5L489.036 672.25L494.038 664.75Z" fill="#439760"/>
<path d="M626.575 246L630.326 249.75L635.328 258.5L634.077 261L622.824 251L624.074 248.5H626.575V246Z" fill="#119383"/>
<path d="M414.015 38.5L424.018 46V49.75L419.016 51L414.015 41V38.5Z" fill="#99D164"/>
</g>
<defs>
<clipPath id="clip0_8_2">
<rect width="959" height="1024" fill="white"/>
</clipPath>
</defs>
</svg>
